%FSLAX35Y35*%
%MOIN*%
G04 EasyPC Gerber Version 18.0.8 Build 3632 *
%ADD146R,0.00600X0.02356*%
%ADD145R,0.01765X0.04324*%
%ADD154R,0.02800X0.03500*%
%ADD108R,0.03537X0.03891*%
%ADD119R,0.04200X0.01400*%
%ADD144R,0.04324X0.01962*%
%ADD153R,0.05500X0.02400*%
%ADD147R,0.12800X0.02800*%
%ADD110R,0.03891X0.03537*%
%ADD111R,0.03930X0.03540*%
%AMT150*0 Rectangle Pad at angle 45*21,1,0.05100,0.05900,0,0,45*%
%ADD150T150*%
%AMT152*0 Rectangle Pad at angle 45*21,1,0.05900,0.05900,0,0,45*%
%ADD152T152*%
%AMT148*0 Rectangle Pad at angle 135*21,1,0.02300,0.05900,0,0,135*%
%ADD148T148*%
%AMT151*0 Rectangle Pad at angle 135*21,1,0.04300,0.05900,0,0,135*%
%ADD151T151*%
%AMT149*0 Rectangle Pad at angle 135*21,1,0.04300,0.08300,0,0,135*%
%ADD149T149*%
X0Y0D02*
D02*
D108*
X175441Y231291D03*
Y238291D03*
X180441Y231291D03*
Y238291D03*
X185441Y231291D03*
Y238291D03*
X190441Y231291D03*
Y238291D03*
X195441Y231291D03*
Y238291D03*
X200441Y231291D03*
Y238291D03*
X285741Y223991D03*
Y230991D03*
X300538Y189952D03*
Y196952D03*
X305741Y223991D03*
Y230991D03*
X308151Y203991D03*
Y210991D03*
X325741Y208991D03*
Y215991D03*
X335741Y208991D03*
Y215991D03*
X340741Y228991D03*
Y235991D03*
X343241Y203991D03*
Y210991D03*
D02*
D110*
X176478Y215909D03*
Y220909D03*
X183478Y215909D03*
Y220909D03*
X317241Y242491D03*
X321741Y179991D03*
X324241Y242491D03*
X328741Y179991D03*
D02*
D111*
X265741Y183991D03*
Y190991D03*
X295741Y223991D03*
Y230991D03*
X307741Y189991D03*
Y196991D03*
D02*
D119*
X135641Y345491D03*
Y347991D03*
Y350491D03*
X144241Y345491D03*
Y348050D03*
Y350609D03*
X169641Y344991D03*
Y347491D03*
Y349991D03*
X178241Y344991D03*
Y347550D03*
Y350109D03*
X188641Y344991D03*
Y347491D03*
Y349991D03*
X197241Y344991D03*
Y347550D03*
Y350109D03*
X218641Y345491D03*
Y347991D03*
Y350491D03*
X227241Y345491D03*
Y348050D03*
Y350609D03*
X244641Y345491D03*
Y347991D03*
Y350491D03*
X253241Y345491D03*
Y348050D03*
Y350609D03*
X272141Y345491D03*
Y347991D03*
Y350491D03*
X280741Y345491D03*
Y348050D03*
Y350609D03*
D02*
D144*
X290600Y208751D03*
Y216231D03*
X300883Y208751D03*
Y212491D03*
Y216231D03*
X315600Y223751D03*
Y231231D03*
X320600Y193751D03*
Y201231D03*
X325883Y223751D03*
Y227491D03*
Y231231D03*
X330883Y193751D03*
Y197491D03*
Y201231D03*
D02*
D145*
X277001Y182373D03*
Y192609D03*
X280741Y182373D03*
Y192609D03*
X284481Y182373D03*
Y192609D03*
D02*
D146*
X158336Y286491D03*
Y291609D03*
X160304Y286491D03*
Y291609D03*
X162273Y286491D03*
Y291609D03*
X164241Y286491D03*
Y291609D03*
X178336Y286491D03*
Y291609D03*
X180304Y286491D03*
Y291609D03*
X182273Y286491D03*
Y291609D03*
X184241Y286491D03*
Y291609D03*
X198336Y286491D03*
Y291609D03*
X200304Y286491D03*
Y291609D03*
X202273Y286491D03*
Y291609D03*
X204241Y286491D03*
Y291609D03*
X218336Y286491D03*
Y291609D03*
X220304Y286491D03*
Y291609D03*
X222273Y286491D03*
Y291609D03*
X224241Y286491D03*
Y291609D03*
X238336Y286491D03*
Y291609D03*
X240304Y286491D03*
Y291609D03*
X242273Y286491D03*
Y291609D03*
X244241Y286491D03*
Y291609D03*
D02*
D147*
X232941Y47491D03*
Y52491D03*
Y57491D03*
Y62491D03*
Y67491D03*
Y72491D03*
Y77491D03*
Y82491D03*
Y87491D03*
Y92491D03*
Y97491D03*
X285741Y62491D03*
Y67491D03*
Y72491D03*
Y77491D03*
Y82491D03*
Y87491D03*
Y92491D03*
Y97491D03*
D02*
D148*
X128722Y127917D03*
X131763Y124877D03*
X134804Y121836D03*
X137844Y118796D03*
X140885Y115755D03*
X143925Y112715D03*
X146966Y109674D03*
X150006Y106633D03*
X153047Y103593D03*
D02*
D149*
X85306Y115189D03*
X128439Y72056D03*
D02*
D150*
X114509Y139443D03*
D02*
D151*
X154885Y98502D03*
D02*
D152*
X141004Y62754D03*
X150479Y72229D03*
D02*
D153*
X383841Y175691D03*
Y181591D03*
Y193391D03*
Y199291D03*
D02*
D154*
X386541Y167191D03*
Y207791D03*
X394941Y167191D03*
Y207791D03*
X0Y0D02*
M02*
