%FSLAX35Y35*%
%MOIN*%
G04 EasyPC Gerber Version 18.0.8 Build 3632 *
%ADD86R,0.02181X0.05724*%
%ADD99R,0.02200X0.03000*%
%ADD98R,0.02600X0.04500*%
%ADD93R,0.02970X0.07100*%
%ADD96R,0.03600X0.05200*%
%ADD88R,0.04937X0.05291*%
%ADD102R,0.04940X0.05330*%
%ADD92R,0.07000X0.07000*%
%ADD89R,0.07300X0.07300*%
%ADD104C,0.04600*%
%ADD103O,0.07500X0.02300*%
%ADD87R,0.05724X0.02181*%
%ADD100R,0.03000X0.02200*%
%ADD101R,0.05600X0.02800*%
%ADD94R,0.07100X0.02970*%
%ADD105R,0.06000X0.03200*%
%ADD85C,0.16000*%
%ADD90R,0.05291X0.04937*%
%ADD91R,0.05330X0.04940*%
%ADD95R,0.06512X0.05528*%
%AMT97*0 Rectangle Pad at angle 45*21,1,0.07000,0.07000,0,0,45*%
%ADD97T97*%
X0Y0D02*
D02*
D85*
X36741Y182991D03*
X73241Y87991D03*
X88741Y355991D03*
X314241Y379491D03*
X396741Y145491D03*
D02*
D86*
X170678Y212351D03*
Y257232D03*
X172646Y212351D03*
Y257232D03*
X174615Y212351D03*
Y257232D03*
X176583Y212351D03*
Y257232D03*
X178552Y212351D03*
Y257232D03*
X180520Y212351D03*
Y257232D03*
X182489Y212351D03*
Y257232D03*
X184457Y212351D03*
Y257232D03*
X186426Y212351D03*
Y257232D03*
X188394Y212351D03*
Y257232D03*
X190363Y212351D03*
Y257232D03*
X192331Y212351D03*
Y257232D03*
X194300Y212351D03*
Y257232D03*
X196268Y212351D03*
Y257232D03*
X198237Y212351D03*
Y257232D03*
X200205Y212351D03*
Y257232D03*
D02*
D87*
X163001Y220028D03*
Y221996D03*
Y223965D03*
Y225933D03*
Y227902D03*
Y229870D03*
Y231839D03*
Y233807D03*
Y235776D03*
Y237744D03*
Y239713D03*
Y241681D03*
Y243650D03*
Y245618D03*
Y247587D03*
Y249555D03*
X207882Y220028D03*
Y221996D03*
Y223965D03*
Y225933D03*
Y227902D03*
Y229870D03*
Y231839D03*
Y233807D03*
Y235776D03*
Y237744D03*
Y239713D03*
Y241681D03*
Y243650D03*
Y245618D03*
Y247587D03*
Y249555D03*
D02*
D88*
X144409Y235505D03*
Y242505D03*
X222411Y247985D03*
Y254985D03*
X227404Y231291D03*
Y238291D03*
X229026Y247861D03*
Y254861D03*
X232404Y231291D03*
Y238291D03*
X242241Y198991D03*
Y205991D03*
X309241Y122991D03*
Y129991D03*
X315741Y253991D03*
Y260991D03*
X320741Y253991D03*
Y260991D03*
X330741Y318991D03*
Y325991D03*
X347339Y160124D03*
Y167124D03*
X350741Y258991D03*
Y265991D03*
X370741Y183991D03*
Y190991D03*
Y198991D03*
Y205991D03*
Y228991D03*
Y235991D03*
Y263991D03*
Y270991D03*
D02*
D89*
X128041Y214791D03*
X141441D03*
X360741Y245791D03*
Y259191D03*
D02*
D90*
X68977Y169956D03*
Y179956D03*
X75977Y169956D03*
Y179956D03*
X136241Y204791D03*
X139786Y223530D03*
X143241Y204791D03*
X146786Y223530D03*
X180241Y188391D03*
Y193391D03*
X180597Y57491D03*
X187241Y188391D03*
Y193391D03*
X187597Y57491D03*
X248241Y225491D03*
X255241D03*
X330985Y269582D03*
X337985D03*
D02*
D91*
X132803Y226291D03*
Y233291D03*
D02*
D92*
X152241Y377491D03*
Y387491D03*
X162241Y377491D03*
Y387491D03*
X172241Y377491D03*
Y387491D03*
X182241Y377491D03*
Y387491D03*
X192241Y377491D03*
Y387491D03*
X202241Y377491D03*
Y387491D03*
X212241Y377491D03*
Y387491D03*
X222241Y377491D03*
Y387491D03*
X232241Y377491D03*
Y387491D03*
X242241Y377491D03*
Y387491D03*
X252241Y377491D03*
Y387491D03*
X262241Y377491D03*
Y387491D03*
X265741Y257491D03*
Y267491D03*
X272241Y377491D03*
Y387491D03*
X360741Y152491D03*
Y162491D03*
Y172491D03*
Y182491D03*
Y192491D03*
Y202491D03*
D02*
D93*
X299718Y136645D03*
Y168338D03*
X302867Y136645D03*
Y168338D03*
X306017Y136645D03*
Y168338D03*
X309167Y136645D03*
Y168338D03*
X312316Y136645D03*
Y168338D03*
X315466Y136645D03*
Y168338D03*
X318615Y136645D03*
Y168338D03*
X321765Y136645D03*
Y168338D03*
D02*
D94*
X294895Y141468D03*
Y144617D03*
Y147767D03*
Y150917D03*
Y154066D03*
Y157216D03*
Y160365D03*
Y163515D03*
X326588Y141468D03*
Y144617D03*
Y147767D03*
Y150917D03*
Y154066D03*
Y157216D03*
Y160365D03*
Y163515D03*
D02*
D95*
X246435Y218962D03*
X246436Y212662D03*
X255135Y212663D03*
Y218965D03*
D02*
D96*
X381241Y228791D03*
Y245191D03*
X389741Y228791D03*
Y245191D03*
D02*
D97*
X82028Y199705D03*
X89099Y192633D03*
X96170Y185563D03*
X103241Y178491D03*
X110312Y171420D03*
X117383Y164349D03*
X124454Y157278D03*
X131526Y150207D03*
X325741Y107491D03*
X332813Y114563D03*
X338241Y357991D03*
X339883Y121633D03*
X345313Y350920D03*
X346955Y128705D03*
D02*
D98*
X150741Y314141D03*
Y320641D03*
X153941Y314141D03*
Y320641D03*
X157141Y314141D03*
Y320641D03*
X160341Y314141D03*
Y320641D03*
X175741Y314141D03*
Y320641D03*
X178941Y314141D03*
Y320641D03*
X182141Y314141D03*
Y320641D03*
X185341Y314141D03*
Y320641D03*
X200741Y314141D03*
Y320641D03*
X203941Y314141D03*
Y320641D03*
X207141Y314141D03*
Y320641D03*
X210341Y314141D03*
Y320641D03*
X225741Y314141D03*
Y320641D03*
X228941Y314141D03*
Y320641D03*
X232141Y314141D03*
Y320641D03*
X235341Y314141D03*
Y320641D03*
X250741Y314141D03*
Y320641D03*
X253941Y314141D03*
Y320641D03*
X257141Y314141D03*
Y320641D03*
X260341Y314141D03*
Y320641D03*
D02*
D99*
X191773Y65423D03*
Y75423D03*
X193773Y65423D03*
Y75423D03*
X195773Y65423D03*
Y75423D03*
D02*
D100*
X188873Y66423D03*
Y68423D03*
Y70423D03*
Y72423D03*
Y74423D03*
X198773Y66423D03*
Y68423D03*
Y70423D03*
Y72423D03*
Y74423D03*
D02*
D101*
X191617Y94932D03*
Y97491D03*
Y100050D03*
X199866Y94932D03*
Y100050D03*
D02*
D102*
X180597Y42491D03*
X187597D03*
D02*
D103*
X220241Y138741D03*
Y141241D03*
Y143741D03*
Y146241D03*
Y148741D03*
Y151241D03*
Y153741D03*
Y156241D03*
Y158741D03*
Y161241D03*
Y163741D03*
Y166241D03*
X241241Y138741D03*
Y141241D03*
Y143741D03*
Y146241D03*
Y148741D03*
Y151241D03*
Y153741D03*
Y156241D03*
Y158741D03*
Y161241D03*
Y163741D03*
Y166241D03*
D02*
D104*
X97256Y100977D03*
X119530Y78703D03*
X390741Y177691D03*
Y197291D03*
D02*
D105*
X330941Y253741D03*
Y261241D03*
X340541Y253741D03*
Y257491D03*
Y261241D03*
X0Y0D02*
M02*
