%FSLAX35Y35*%
%MOIN*%
G04 EasyPC Gerber Version 18.0.8 Build 3632 *
%ADD135R,0.02000X0.03756*%
%ADD134R,0.03165X0.05724*%
%ADD143R,0.04200X0.04900*%
%ADD88R,0.04937X0.05291*%
%ADD92R,0.07000X0.07000*%
%ADD104C,0.04600*%
%ADD101R,0.05600X0.02800*%
%ADD133R,0.05724X0.03362*%
%ADD142R,0.06900X0.03800*%
%ADD136R,0.14200X0.04200*%
%AMT139*0 Rectangle Pad at angle 45*21,1,0.06500,0.07300,0,0,45*%
%ADD139T139*%
%ADD85C,0.16000*%
%ADD90R,0.05291X0.04937*%
%ADD91R,0.05330X0.04940*%
%AMT97*0 Rectangle Pad at angle 45*21,1,0.07000,0.07000,0,0,45*%
%ADD97T97*%
%AMT137*0 Rectangle Pad at angle 135*21,1,0.03700,0.07300,0,0,135*%
%ADD137T137*%
%AMT140*0 Rectangle Pad at angle 135*21,1,0.05700,0.07300,0,0,135*%
%ADD140T140*%
%AMT138*0 Rectangle Pad at angle 135*21,1,0.05700,0.09700,0,0,135*%
%ADD138T138*%
%AMT141*0 Rectangle Pad at angle 45*21,1,0.07300,0.07300,0,0,45*%
%ADD141T141*%
X0Y0D02*
D02*
D85*
X36741Y182991D03*
X73241Y87991D03*
X88741Y355991D03*
X314241Y379491D03*
X396741Y145491D03*
D02*
D88*
X175441Y231291D03*
Y238291D03*
X180441Y231291D03*
Y238291D03*
X185441Y231291D03*
Y238291D03*
X190441Y231291D03*
Y238291D03*
X195441Y231291D03*
Y238291D03*
X200441Y231291D03*
Y238291D03*
X285741Y223991D03*
Y230991D03*
X300538Y189952D03*
Y196952D03*
X305741Y223991D03*
Y230991D03*
X308151Y203991D03*
Y210991D03*
X325741Y208991D03*
Y215991D03*
X335741Y208991D03*
Y215991D03*
X340741Y228991D03*
Y235991D03*
X343241Y203991D03*
Y210991D03*
D02*
D90*
X176478Y215909D03*
Y220909D03*
X183478Y215909D03*
Y220909D03*
X317241Y242491D03*
X321741Y179991D03*
X324241Y242491D03*
X328741Y179991D03*
D02*
D91*
X265741Y183991D03*
Y190991D03*
X295741Y223991D03*
Y230991D03*
X307741Y189991D03*
Y196991D03*
D02*
D92*
X152241Y377491D03*
Y387491D03*
X162241Y377491D03*
Y387491D03*
X172241Y377491D03*
Y387491D03*
X182241Y377491D03*
Y387491D03*
X192241Y377491D03*
Y387491D03*
X202241Y377491D03*
Y387491D03*
X212241Y377491D03*
Y387491D03*
X222241Y377491D03*
Y387491D03*
X232241Y377491D03*
Y387491D03*
X242241Y377491D03*
Y387491D03*
X252241Y377491D03*
Y387491D03*
X262241Y377491D03*
Y387491D03*
X265741Y257491D03*
Y267491D03*
X272241Y377491D03*
Y387491D03*
X360741Y152491D03*
Y162491D03*
Y172491D03*
Y182491D03*
Y192491D03*
Y202491D03*
D02*
D97*
X82028Y199705D03*
X89099Y192633D03*
X96170Y185563D03*
X103241Y178491D03*
X110312Y171420D03*
X117383Y164349D03*
X124454Y157278D03*
X131526Y150207D03*
X325741Y107491D03*
X332813Y114563D03*
X338241Y357991D03*
X339883Y121633D03*
X345313Y350920D03*
X346955Y128705D03*
D02*
D101*
X135641Y345491D03*
Y347991D03*
Y350491D03*
X144241Y345491D03*
Y348050D03*
Y350609D03*
X169641Y344991D03*
Y347491D03*
Y349991D03*
X178241Y344991D03*
Y347550D03*
Y350109D03*
X188641Y344991D03*
Y347491D03*
Y349991D03*
X197241Y344991D03*
Y347550D03*
Y350109D03*
X218641Y345491D03*
Y347991D03*
Y350491D03*
X227241Y345491D03*
Y348050D03*
Y350609D03*
X244641Y345491D03*
Y347991D03*
Y350491D03*
X253241Y345491D03*
Y348050D03*
Y350609D03*
X272141Y345491D03*
Y347991D03*
Y350491D03*
X280741Y345491D03*
Y348050D03*
Y350609D03*
D02*
D104*
X97256Y100977D03*
X119530Y78703D03*
X390741Y177691D03*
Y197291D03*
D02*
D133*
X290600Y208751D03*
Y216231D03*
X300883Y208751D03*
Y212491D03*
Y216231D03*
X315600Y223751D03*
Y231231D03*
X320600Y193751D03*
Y201231D03*
X325883Y223751D03*
Y227491D03*
Y231231D03*
X330883Y193751D03*
Y197491D03*
Y201231D03*
D02*
D134*
X277001Y182373D03*
Y192609D03*
X280741Y182373D03*
Y192609D03*
X284481Y182373D03*
Y192609D03*
D02*
D135*
X158336Y286491D03*
Y291609D03*
X160304Y286491D03*
Y291609D03*
X162273Y286491D03*
Y291609D03*
X164241Y286491D03*
Y291609D03*
X178336Y286491D03*
Y291609D03*
X180304Y286491D03*
Y291609D03*
X182273Y286491D03*
Y291609D03*
X184241Y286491D03*
Y291609D03*
X198336Y286491D03*
Y291609D03*
X200304Y286491D03*
Y291609D03*
X202273Y286491D03*
Y291609D03*
X204241Y286491D03*
Y291609D03*
X218336Y286491D03*
Y291609D03*
X220304Y286491D03*
Y291609D03*
X222273Y286491D03*
Y291609D03*
X224241Y286491D03*
Y291609D03*
X238336Y286491D03*
Y291609D03*
X240304Y286491D03*
Y291609D03*
X242273Y286491D03*
Y291609D03*
X244241Y286491D03*
Y291609D03*
D02*
D136*
X232941Y47491D03*
Y52491D03*
Y57491D03*
Y62491D03*
Y67491D03*
Y72491D03*
Y77491D03*
Y82491D03*
Y87491D03*
Y92491D03*
Y97491D03*
X285741Y62491D03*
Y67491D03*
Y72491D03*
Y77491D03*
Y82491D03*
Y87491D03*
Y92491D03*
Y97491D03*
D02*
D137*
X128722Y127917D03*
X131763Y124877D03*
X134804Y121836D03*
X137844Y118796D03*
X140885Y115755D03*
X143925Y112715D03*
X146966Y109674D03*
X150006Y106633D03*
X153047Y103593D03*
D02*
D138*
X85306Y115189D03*
X128439Y72056D03*
D02*
D139*
X114509Y139443D03*
D02*
D140*
X154885Y98502D03*
D02*
D141*
X141004Y62754D03*
X150479Y72229D03*
D02*
D142*
X383841Y175691D03*
Y181591D03*
Y193391D03*
Y199291D03*
D02*
D143*
X386541Y167191D03*
Y207791D03*
X394941Y167191D03*
Y207791D03*
X0Y0D02*
M02*
