%FSLAX35Y35*%
%MOIN*%
G04 EasyPC Gerber Version 18.0.8 Build 3632 *
%ADD20R,0.01200X0.03200*%
%ADD17R,0.02756X0.05906*%
%ADD14R,0.03200X0.13200*%
%ADD16R,0.03937X0.04291*%
%ADD23R,0.06000X0.12800*%
%ADD24R,0.06000X0.06000*%
%ADD22R,0.10000X0.10000*%
%ADD13C,0.01000*%
%ADD29C,0.01400*%
%ADD27C,0.01500*%
%ADD25C,0.02000*%
%ADD72C,0.02500*%
%ADD26C,0.03200*%
%ADD18C,0.03543*%
%ADD28C,0.05000*%
%ADD21R,0.03200X0.01200*%
%ADD19R,0.03937X0.03150*%
%ADD15R,0.04291X0.03937*%
%ADD71R,0.25000X0.06300*%
%ADD70R,0.30000X0.06300*%
X0Y0D02*
D02*
D13*
X21750Y41250D02*
X44150D01*
X49150Y46250*
X61750*
X21750Y51250D02*
Y52150D01*
X61750Y52250*
Y42250D02*
X63350Y41450D01*
X61750Y41250*
X78250Y34750D02*
X77750D01*
Y17750*
X81250Y14250*
X90750*
X93250Y16750*
Y20750*
X78250Y34750D02*
Y36750D01*
X84750Y67250D02*
X83150Y67150D01*
X81250Y65250*
Y54250*
X83250Y52250*
X85244*
X85276Y52219*
Y46313D02*
Y42776D01*
X83750Y41250*
X85276Y48281D02*
Y48250D01*
X71250*
X69250Y46250*
Y46150*
X68750Y46250*
X85276Y50250D02*
X71250D01*
X69250Y52250*
X68750*
X88813Y42776D02*
X85276D01*
X90781D02*
X90750D01*
Y40250*
X85250Y34750*
X92750Y42776D02*
Y50250D01*
Y57724D02*
Y60750D01*
X93750Y61750*
X99750*
X102750Y58750*
X112750*
X114250Y60250*
Y60750*
X92750Y57724D02*
Y50250D01*
X93250Y20750D02*
Y36750D01*
X92750Y37250*
Y42776*
X94719D02*
X94750D01*
Y40250*
X97850Y37150*
X97250Y35750*
X96687Y57724D02*
Y56750D01*
X126750*
X130250Y60250*
X100224Y50250D02*
X115750D01*
X117250Y51750*
X100224Y54187D02*
X105313D01*
X106250Y53250*
X116250Y35750D02*
Y23750D01*
X125750Y14250*
X125703Y13297*
Y13140*
X130250Y53750D02*
X124250D01*
X118750Y48250*
X100224*
Y48281*
X145750Y20250D02*
X150750D01*
X145750Y73050D02*
X139750D01*
Y83250*
X140250Y83750*
X165250Y52250D02*
X170250D01*
X173750Y55750*
X167750Y6750D02*
X177250D01*
X180750Y10250*
Y20250*
X173750Y55750D02*
X180750Y62750D01*
Y73050*
Y80250*
X182750Y81250*
X184250Y83250*
X185250Y85250*
X187750Y87250*
X192750*
X194250Y85750*
X190750Y73050D02*
Y61250D01*
X185250Y55750*
X173750*
X194250Y85750D02*
Y84250D01*
X195750Y82750*
Y73050*
D02*
D14*
X145750Y20250D03*
Y73050D03*
X150750Y20250D03*
Y73050D03*
X155750Y20250D03*
Y73050D03*
X160750Y20250D03*
Y73050D03*
X165750Y20250D03*
Y73050D03*
X170750Y20250D03*
Y73050D03*
X175750Y20250D03*
Y73050D03*
X180750Y20250D03*
Y73050D03*
X185750D03*
X190750D03*
X195750D03*
D02*
D15*
X61750Y36150D03*
Y41250D03*
Y46250D03*
Y52250D03*
Y57750D03*
Y63250D03*
X68750Y36150D03*
Y41250D03*
Y46250D03*
Y52250D03*
Y57750D03*
Y63250D03*
X78250Y34750D03*
X84750Y67250D03*
X85250Y34750D03*
X91750Y67250D03*
X97250Y35750D03*
X98250Y67250D03*
X99750Y29750D03*
X104250Y35750D03*
X105250Y67250D03*
X106750Y29750D03*
X127250Y30250D03*
Y35750D03*
X130250Y53750D03*
Y60250D03*
X134250Y30250D03*
Y35750D03*
X137250Y53750D03*
Y60250D03*
X151250Y86750D03*
X158250D03*
X169250Y83250D03*
X173750Y88250D03*
X176250Y83250D03*
X180750Y88250D03*
D02*
D16*
X56250Y31250D03*
Y38250D03*
Y61250D03*
Y68250D03*
X61250Y22250D03*
Y29250D03*
X141750Y3750D03*
Y10750D03*
D02*
D17*
X113892Y13140D03*
X125703D03*
X131608D03*
D02*
D18*
X116847Y6266D03*
X128658D03*
D02*
D19*
X108970Y3297D03*
Y10187D03*
X136530Y3297D03*
Y10187D03*
D02*
D70*
X19250Y31250D03*
Y61250D03*
D02*
D71*
X21750Y41250D03*
Y51250D03*
D02*
D20*
X88813Y42776D03*
Y57724D03*
X90781Y42776D03*
Y57724D03*
X92750Y42776D03*
Y57724D03*
X94719Y42776D03*
Y57724D03*
X96687Y42776D03*
Y57724D03*
D02*
D21*
X85276Y46313D03*
Y48281D03*
Y50250D03*
Y52219D03*
Y54187D03*
X100224Y46313D03*
Y48281D03*
Y50250D03*
Y52219D03*
Y54187D03*
D02*
D22*
X92750Y50250D03*
D02*
D23*
X67750Y24750D03*
X84750D03*
D02*
D24*
X58750Y6250D03*
Y86750D03*
X68750Y6250D03*
Y86750D03*
X78750Y6250D03*
Y86750D03*
X88750Y6250D03*
Y86750D03*
X98750Y6250D03*
Y86750D03*
X108750D03*
X118750D03*
D02*
D25*
X51750Y31750D02*
X56750Y31250D01*
X58750Y29250*
X61750Y36150D02*
Y41250D01*
Y46250D02*
Y42250D01*
Y52250D02*
Y57750D01*
Y63250D02*
Y57750D01*
X68750Y36150D02*
Y41250D01*
X73650Y41350*
X75750Y39250*
X68750Y57750D02*
X73750Y57850D01*
X68750Y63250D02*
Y57750D01*
D02*
D26*
X50250Y61250D03*
X52750Y41250D03*
X73750Y57850D03*
X75750Y39250D03*
X83750Y41250D03*
X106250Y53250D03*
Y61750D03*
X108250Y43250D03*
X114250Y60750D03*
X116250Y35750D03*
X117250Y51750D03*
X140250Y83750D03*
X146750Y3750D03*
X155250Y62250D03*
X155750Y30250D03*
X160750D03*
Y62250D03*
X165250Y52250D03*
X165750Y30250D03*
Y62250D03*
X167750Y6750D03*
X170750Y30250D03*
Y62250D03*
X175750Y30250D03*
Y62250D03*
X177250Y45250D03*
X180750Y83750D03*
X187750Y83250D03*
X194250Y85750D03*
D02*
D27*
X56250Y68250D02*
Y68750D01*
X58750Y71250*
X66750*
X68750Y69250*
Y63250*
X58750Y29250D02*
X61250D01*
X85276Y42776D02*
X83750Y41250D01*
X98250Y67250D02*
X91750D01*
X98750Y86750D02*
Y86250D01*
X105250Y79750*
Y67250*
X104250Y35750D02*
X100250Y31750D01*
Y29750*
X99750*
X105250Y67250D02*
X105750Y66750D01*
Y61750*
X106250*
X108250Y43250D02*
Y31250D01*
X106750Y29750*
X113892Y13140D02*
X113750Y13281D01*
Y14750*
X104750*
X98750Y8750*
Y6250*
X114250Y60750D02*
Y73750D01*
X119250Y78750*
Y86250*
X118750Y86750*
X137250*
X140250Y83750*
X131608Y13140D02*
Y14608D01*
X131750Y14750*
X138750*
X142850Y10650*
X141750Y10750*
X134250Y30250D02*
X144750Y30350D01*
Y30250*
X145750Y29250*
Y20250*
X140250Y83750D02*
X143250Y86750D01*
X151250*
X141750Y3750D02*
X146650Y3850D01*
X146750Y3750*
X145750Y20250D02*
X128250D01*
X121250Y27250*
Y38750*
X124750Y42250*
X137750*
X141750Y46250*
X165250*
X145750Y73050D02*
X150750D01*
Y20250D02*
Y9750D01*
X151750Y8750*
X165750*
X167750Y6750*
X155250Y62250D02*
X154250D01*
X152250Y60250*
X137250*
X155750Y20250D02*
Y30250D01*
X150250Y35750*
X134250*
X155750Y73050D02*
Y68750D01*
X155250*
Y62250*
X160750Y20250D02*
Y30250D01*
Y62250D02*
X152250Y53750D01*
X137250*
X160750Y73050D02*
Y62250D01*
X165250Y52250D02*
X159750D01*
X157250Y49750*
X139750*
X135750Y45750*
X123250*
X119750Y42250*
X113750*
X110750Y39250*
Y23250*
X108250Y20750*
X93250*
X165750Y20250D02*
Y30250D01*
Y73050D02*
Y62250D01*
X169250Y83250D02*
X170750D01*
Y79250*
X170250Y73550*
X170750Y73050*
Y20250D02*
Y30250D01*
Y73050D02*
Y62250D01*
X173750Y88250D02*
X161850Y88350D01*
X160250Y86750*
X158250*
X173750Y88250D02*
X176250Y83250D01*
X175750Y20250D02*
Y30250D01*
Y62250D02*
Y73050D01*
Y78250*
X176250*
Y83250*
X177250Y45250D02*
Y31750D01*
X175750Y30250*
X180750Y88250D02*
Y83750D01*
X185750Y73050D02*
Y81250D01*
X187750Y83250*
D02*
D28*
X19250Y31250D02*
X51750Y31750D01*
X19250Y61250D02*
X50250D01*
X55300*
X67750Y24750D02*
Y22250D01*
X165250Y46250D02*
Y52250D01*
D02*
D29*
X78250Y36750D02*
X75750Y39250D01*
D02*
D72*
X55300Y61250D02*
X56250D01*
Y38250D02*
X56150Y37850D01*
X52750Y41250*
X67750Y22250D02*
X61750D01*
X61250Y22750*
Y22250*
X84750Y24750D02*
Y26750D01*
X85250Y27250*
Y34750*
X127250Y35750D02*
Y30250D01*
X0Y0D02*
M02*
