%FSLAX35Y35*%
%MOIN*%
G04 EasyPC Gerber Version 18.0.8 Build 3632 *
%ADD10C,0.00100*%
%ADD11C,0.00300*%
%ADD151C,0.00500*%
%ADD12C,0.00600*%
%ADD13C,0.01000*%
X0Y0D02*
D02*
D10*
X99150Y19650D02*
X97950D01*
X97050Y21150*
X96850Y21450*
X96650Y21750*
X96250Y21850*
X95850*
Y19650*
X94850*
Y25050*
X96650*
X97550Y24950*
X98050Y24650*
X98450Y24250*
X98550Y23650*
X98450Y23150*
X98250Y22650*
X97850Y22350*
X97350Y22150*
X97750Y21850*
X98150Y21250*
X99150Y19650*
X95850Y24250D02*
Y22650D01*
X96450*
X96850Y22750*
X97150Y22850*
X97350Y23150*
X97450Y23450*
X97350Y23850*
X97250Y24050*
X96950Y24150*
X96550Y24250*
X95850*
X104050Y19650D02*
X102750D01*
X101750Y21450*
X101650Y21850*
X101550Y21450*
X100450Y19650*
X99150*
X100950Y22350*
X99350Y25050*
X100650*
X101550Y23350*
X101650Y22950*
X101850Y23350*
X102850Y25050*
X103950*
X102350Y22350*
X104050Y19650*
X104650D02*
Y25050D01*
X106450*
X107750Y24850*
X108650Y24350*
X109150Y23550*
X109350Y22450*
Y21850*
X109150Y21250*
X108850Y20850*
X108550Y20350*
X107650Y19850*
X106450Y19650*
X104650*
X105650Y24150D02*
Y20550D01*
X106350*
X107150Y20650*
X107750Y21050*
X108150Y21650*
X108250Y22350*
X108150Y23150*
X107750Y23650*
X107150Y24050*
X106350Y24150*
X105650*
X94850Y19718D02*
X95850D01*
X97909D02*
X99108D01*
X99195D02*
X100491D01*
X102712D02*
X104007D01*
X104650D02*
X106856D01*
X94850Y19811D02*
X95850D01*
X97853D02*
X99049D01*
X99257D02*
X100549D01*
X102660D02*
X103948D01*
X104650D02*
X107419D01*
X94850Y19905D02*
X95850D01*
X97797D02*
X98991D01*
X99320D02*
X100606D01*
X102608D02*
X103889D01*
X104650D02*
X107749D01*
X94850Y19999D02*
X95850D01*
X97741D02*
X98932D01*
X99383D02*
X100663D01*
X102556D02*
X103830D01*
X104650D02*
X107918D01*
X94850Y20093D02*
X95850D01*
X97685D02*
X98874D01*
X99445D02*
X100720D01*
X102504D02*
X103771D01*
X104650D02*
X108087D01*
X94850Y20186D02*
X95850D01*
X97628D02*
X98815D01*
X99507D02*
X100778D01*
X102452D02*
X103712D01*
X104650D02*
X108255D01*
X94850Y20280D02*
X95850D01*
X97572D02*
X98756D01*
X99570D02*
X100835D01*
X102400D02*
X103654D01*
X104650D02*
X108424D01*
X94850Y20374D02*
X95850D01*
X97516D02*
X98698D01*
X99632D02*
X100892D01*
X102348D02*
X103594D01*
X104650D02*
X108564D01*
X94850Y20467D02*
X95850D01*
X97459D02*
X98639D01*
X99695D02*
X100950D01*
X102296D02*
X103535D01*
X104650D02*
X108620D01*
X94850Y20561D02*
X95850D01*
X97404D02*
X98581D01*
X99757D02*
X101007D01*
X102244D02*
X103476D01*
X104650D02*
X105650D01*
X106438D02*
X108677D01*
X94850Y20655D02*
X95850D01*
X97347D02*
X98522D01*
X99820D02*
X101064D01*
X102192D02*
X103417D01*
X104650D02*
X105650D01*
X107157D02*
X108733D01*
X94850Y20748D02*
X95850D01*
X97291D02*
X98463D01*
X99882D02*
X101121D01*
X102140D02*
X103358D01*
X104650D02*
X105650D01*
X107298D02*
X108789D01*
X94850Y20842D02*
X95850D01*
X97235D02*
X98405D01*
X99945D02*
X101178D01*
X102088D02*
X103299D01*
X104650D02*
X105650D01*
X107438D02*
X108845D01*
X94850Y20936D02*
X95850D01*
X97178D02*
X98346D01*
X100007D02*
X101236D01*
X102036D02*
X103241D01*
X104650D02*
X105650D01*
X107579D02*
X108914D01*
X94850Y21030D02*
X95850D01*
X97122D02*
X98288D01*
X100070D02*
X101293D01*
X101983D02*
X103181D01*
X104650D02*
X105650D01*
X107719D02*
X108985D01*
X94850Y21123D02*
X95850D01*
X97066D02*
X98229D01*
X100132D02*
X101350D01*
X101931D02*
X103122D01*
X104650D02*
X105650D01*
X107799D02*
X109055D01*
X94850Y21217D02*
X95850D01*
X97006D02*
X98171D01*
X100194D02*
X101407D01*
X101880D02*
X103063D01*
X104650D02*
X105650D01*
X107861D02*
X109125D01*
X94850Y21311D02*
X95850D01*
X96943D02*
X98109D01*
X100257D02*
X101465D01*
X101828D02*
X103004D01*
X104650D02*
X105650D01*
X107924D02*
X109170D01*
X94850Y21404D02*
X95850D01*
X96880D02*
X98047D01*
X100320D02*
X101522D01*
X101775D02*
X102945D01*
X104650D02*
X105650D01*
X107986D02*
X109202D01*
X94850Y21498D02*
X95850D01*
X96818D02*
X97985D01*
X100382D02*
X101562D01*
X101738D02*
X102887D01*
X104650D02*
X105650D01*
X108049D02*
X109233D01*
X94850Y21592D02*
X95850D01*
X96756D02*
X97922D01*
X100444D02*
X101585D01*
X101715D02*
X102828D01*
X104650D02*
X105650D01*
X108111D02*
X109264D01*
X94850Y21685D02*
X95850D01*
X96693D02*
X97860D01*
X100507D02*
X101609D01*
X101691D02*
X102769D01*
X104650D02*
X105650D01*
X108155D02*
X109295D01*
X94850Y21779D02*
X95850D01*
X96533D02*
X97797D01*
X100569D02*
X101632D01*
X101668D02*
X102709D01*
X104650D02*
X105650D01*
X108169D02*
X109326D01*
X94850Y21873D02*
X97720D01*
X100632D02*
X102650D01*
X104650D02*
X105650D01*
X108182D02*
X109350D01*
X94850Y21967D02*
X97594D01*
X100694D02*
X102591D01*
X104650D02*
X105650D01*
X108195D02*
X109350D01*
X94850Y22060D02*
X97470D01*
X100757D02*
X102532D01*
X104650D02*
X105650D01*
X108209D02*
X109350D01*
X94850Y22154D02*
X97360D01*
X100819D02*
X102474D01*
X104650D02*
X105650D01*
X108222D02*
X109350D01*
X94850Y22248D02*
X97594D01*
X100882D02*
X102415D01*
X104650D02*
X105650D01*
X108235D02*
X109350D01*
X94850Y22341D02*
X97828D01*
X100944D02*
X102356D01*
X104650D02*
X105650D01*
X108249D02*
X109350D01*
X94850Y22435D02*
X97963D01*
X100900D02*
X102400D01*
X104650D02*
X105650D01*
X108239D02*
X109350D01*
X94850Y22529D02*
X98088D01*
X100844D02*
X102456D01*
X104650D02*
X105650D01*
X108228D02*
X109336D01*
X94850Y22622D02*
X98213D01*
X100789D02*
X102511D01*
X104650D02*
X105650D01*
X108216D02*
X109319D01*
X94850Y22716D02*
X95850D01*
X96715D02*
X98276D01*
X100733D02*
X102567D01*
X104650D02*
X105650D01*
X108204D02*
X109302D01*
X94850Y22810D02*
X95850D01*
X97030D02*
X98314D01*
X100678D02*
X102622D01*
X104650D02*
X105650D01*
X108193D02*
X109285D01*
X94850Y22904D02*
X95850D01*
X97186D02*
X98352D01*
X100622D02*
X102678D01*
X104650D02*
X105650D01*
X108181D02*
X109268D01*
X94850Y22997D02*
X95850D01*
X97248D02*
X98389D01*
X100567D02*
X101638D01*
X101674D02*
X102733D01*
X104650D02*
X105650D01*
X108169D02*
X109250D01*
X94850Y23091D02*
X95850D01*
X97311D02*
X98426D01*
X100511D02*
X101615D01*
X101720D02*
X102789D01*
X104650D02*
X105650D01*
X108157D02*
X109233D01*
X94850Y23185D02*
X95850D01*
X97361D02*
X98457D01*
X100456D02*
X101591D01*
X101767D02*
X102844D01*
X104650D02*
X105650D01*
X108122D02*
X109217D01*
X94850Y23278D02*
X95850D01*
X97393D02*
X98476D01*
X100400D02*
X101568D01*
X101814D02*
X102900D01*
X104650D02*
X105650D01*
X108047D02*
X109199D01*
X94850Y23372D02*
X95850D01*
X97424D02*
X98494D01*
X100344D02*
X101538D01*
X101863D02*
X102956D01*
X104650D02*
X105650D01*
X107972D02*
X109182D01*
X94850Y23466D02*
X95850D01*
X97446D02*
X98513D01*
X100289D02*
X101489D01*
X101918D02*
X103011D01*
X104650D02*
X105650D01*
X107897D02*
X109165D01*
X94850Y23559D02*
X95850D01*
X97422D02*
X98532D01*
X100233D02*
X101439D01*
X101973D02*
X103067D01*
X104650D02*
X105650D01*
X107822D02*
X109144D01*
X94850Y23653D02*
X95850D01*
X97399D02*
X98550D01*
X100178D02*
X101389D01*
X102028D02*
X103122D01*
X104650D02*
X105650D01*
X107745D02*
X109085D01*
X94850Y23747D02*
X95850D01*
X97376D02*
X98534D01*
X100122D02*
X101340D01*
X102083D02*
X103178D01*
X104650D02*
X105650D01*
X107605D02*
X109027D01*
X94850Y23841D02*
X95850D01*
X97352D02*
X98518D01*
X100067D02*
X101290D01*
X102139D02*
X103233D01*
X104650D02*
X105650D01*
X107464D02*
X108969D01*
X94850Y23934D02*
X95850D01*
X97308D02*
X98503D01*
X100011D02*
X101241D01*
X102194D02*
X103289D01*
X104650D02*
X105650D01*
X107324D02*
X108910D01*
X94850Y24028D02*
X95850D01*
X97261D02*
X98487D01*
X99956D02*
X101191D01*
X102249D02*
X103344D01*
X104650D02*
X105650D01*
X107183D02*
X108851D01*
X94850Y24122D02*
X95850D01*
X97035D02*
X98471D01*
X99900D02*
X101141D01*
X102304D02*
X103400D01*
X104650D02*
X105650D01*
X106577D02*
X108793D01*
X94850Y24215D02*
X95850D01*
X96689D02*
X98456D01*
X99844D02*
X101092D01*
X102359D02*
X103456D01*
X104650D02*
X108734D01*
X94850Y24309D02*
X98391D01*
X99789D02*
X101042D01*
X102414D02*
X103511D01*
X104650D02*
X108676D01*
X94850Y24403D02*
X98297D01*
X99733D02*
X100993D01*
X102469D02*
X103567D01*
X104650D02*
X108555D01*
X94850Y24496D02*
X98204D01*
X99678D02*
X100943D01*
X102524D02*
X103622D01*
X104650D02*
X108386D01*
X94850Y24590D02*
X98110D01*
X99622D02*
X100893D01*
X102580D02*
X103678D01*
X104650D02*
X108218D01*
X94850Y24684D02*
X97994D01*
X99567D02*
X100844D01*
X102635D02*
X103733D01*
X104650D02*
X108049D01*
X94850Y24778D02*
X97837D01*
X99511D02*
X100794D01*
X102690D02*
X103789D01*
X104650D02*
X107880D01*
X94850Y24871D02*
X97681D01*
X99456D02*
X100744D01*
X102745D02*
X103844D01*
X104650D02*
X107612D01*
X94850Y24965D02*
X97415D01*
X99400D02*
X100695D01*
X102800D02*
X103900D01*
X104650D02*
X107003D01*
X98950Y76650D02*
X97450D01*
Y72150*
X96450*
Y76650*
X94950*
Y77550*
X98950*
Y76650*
X104050Y72150D02*
X102750D01*
X101750Y73950*
X101650Y74350*
X101550Y73950*
X100450Y72150*
X99150*
X100950Y74850*
X99350Y77550*
X100650*
X101550Y75850*
X101650Y75450*
X101850Y75850*
X102850Y77550*
X103950*
X102350Y74850*
X104050Y72150*
X104650D02*
Y77550D01*
X106450*
X107750Y77350*
X108650Y76850*
X109150Y76050*
X109350Y74950*
Y74350*
X109150Y73750*
X108850Y73350*
X108550Y72850*
X107650Y72350*
X106450Y72150*
X104650*
X105650Y76650D02*
Y73050D01*
X106350*
X107150Y73150*
X107750Y73550*
X108150Y74150*
X108250Y74850*
X108150Y75650*
X107750Y76150*
X107150Y76550*
X106350Y76650*
X105650*
X96450Y72218D02*
X97450D01*
X99195D02*
X100491D01*
X102712D02*
X104007D01*
X104650D02*
X106856D01*
X96450Y72311D02*
X97450D01*
X99257D02*
X100549D01*
X102660D02*
X103948D01*
X104650D02*
X107419D01*
X96450Y72405D02*
X97450D01*
X99320D02*
X100606D01*
X102608D02*
X103889D01*
X104650D02*
X107749D01*
X96450Y72499D02*
X97450D01*
X99383D02*
X100663D01*
X102556D02*
X103830D01*
X104650D02*
X107918D01*
X96450Y72593D02*
X97450D01*
X99445D02*
X100720D01*
X102504D02*
X103771D01*
X104650D02*
X108087D01*
X96450Y72686D02*
X97450D01*
X99507D02*
X100778D01*
X102452D02*
X103712D01*
X104650D02*
X108255D01*
X96450Y72780D02*
X97450D01*
X99570D02*
X100835D01*
X102400D02*
X103654D01*
X104650D02*
X108424D01*
X96450Y72874D02*
X97450D01*
X99632D02*
X100892D01*
X102348D02*
X103594D01*
X104650D02*
X108564D01*
X96450Y72967D02*
X97450D01*
X99695D02*
X100950D01*
X102296D02*
X103535D01*
X104650D02*
X108620D01*
X96450Y73061D02*
X97450D01*
X99757D02*
X101007D01*
X102244D02*
X103476D01*
X104650D02*
X105650D01*
X106438D02*
X108677D01*
X96450Y73155D02*
X97450D01*
X99820D02*
X101064D01*
X102192D02*
X103417D01*
X104650D02*
X105650D01*
X107157D02*
X108733D01*
X96450Y73248D02*
X97450D01*
X99882D02*
X101121D01*
X102140D02*
X103358D01*
X104650D02*
X105650D01*
X107298D02*
X108789D01*
X96450Y73342D02*
X97450D01*
X99945D02*
X101178D01*
X102088D02*
X103299D01*
X104650D02*
X105650D01*
X107438D02*
X108845D01*
X96450Y73436D02*
X97450D01*
X100007D02*
X101236D01*
X102036D02*
X103241D01*
X104650D02*
X105650D01*
X107579D02*
X108914D01*
X96450Y73530D02*
X97450D01*
X100070D02*
X101293D01*
X101983D02*
X103181D01*
X104650D02*
X105650D01*
X107719D02*
X108985D01*
X96450Y73623D02*
X97450D01*
X100132D02*
X101350D01*
X101931D02*
X103122D01*
X104650D02*
X105650D01*
X107799D02*
X109055D01*
X96450Y73717D02*
X97450D01*
X100194D02*
X101407D01*
X101880D02*
X103063D01*
X104650D02*
X105650D01*
X107861D02*
X109125D01*
X96450Y73811D02*
X97450D01*
X100257D02*
X101465D01*
X101828D02*
X103004D01*
X104650D02*
X105650D01*
X107924D02*
X109170D01*
X96450Y73904D02*
X97450D01*
X100320D02*
X101522D01*
X101775D02*
X102945D01*
X104650D02*
X105650D01*
X107986D02*
X109202D01*
X96450Y73998D02*
X97450D01*
X100382D02*
X101562D01*
X101738D02*
X102887D01*
X104650D02*
X105650D01*
X108049D02*
X109233D01*
X96450Y74092D02*
X97450D01*
X100444D02*
X101585D01*
X101715D02*
X102828D01*
X104650D02*
X105650D01*
X108111D02*
X109264D01*
X96450Y74185D02*
X97450D01*
X100507D02*
X101609D01*
X101691D02*
X102769D01*
X104650D02*
X105650D01*
X108155D02*
X109295D01*
X96450Y74279D02*
X97450D01*
X100569D02*
X101632D01*
X101668D02*
X102709D01*
X104650D02*
X105650D01*
X108169D02*
X109326D01*
X96450Y74373D02*
X97450D01*
X100632D02*
X102650D01*
X104650D02*
X105650D01*
X108182D02*
X109350D01*
X96450Y74467D02*
X97450D01*
X100694D02*
X102591D01*
X104650D02*
X105650D01*
X108195D02*
X109350D01*
X96450Y74560D02*
X97450D01*
X100757D02*
X102532D01*
X104650D02*
X105650D01*
X108209D02*
X109350D01*
X96450Y74654D02*
X97450D01*
X100819D02*
X102474D01*
X104650D02*
X105650D01*
X108222D02*
X109350D01*
X96450Y74748D02*
X97450D01*
X100882D02*
X102415D01*
X104650D02*
X105650D01*
X108235D02*
X109350D01*
X96450Y74841D02*
X97450D01*
X100944D02*
X102356D01*
X104650D02*
X105650D01*
X108249D02*
X109350D01*
X96450Y74935D02*
X97450D01*
X100900D02*
X102400D01*
X104650D02*
X105650D01*
X108239D02*
X109350D01*
X96450Y75029D02*
X97450D01*
X100844D02*
X102456D01*
X104650D02*
X105650D01*
X108228D02*
X109336D01*
X96450Y75122D02*
X97450D01*
X100789D02*
X102511D01*
X104650D02*
X105650D01*
X108216D02*
X109319D01*
X96450Y75216D02*
X97450D01*
X100733D02*
X102567D01*
X104650D02*
X105650D01*
X108204D02*
X109302D01*
X96450Y75310D02*
X97450D01*
X100678D02*
X102622D01*
X104650D02*
X105650D01*
X108193D02*
X109285D01*
X96450Y75404D02*
X97450D01*
X100622D02*
X102678D01*
X104650D02*
X105650D01*
X108181D02*
X109268D01*
X96450Y75497D02*
X97450D01*
X100567D02*
X101638D01*
X101674D02*
X102733D01*
X104650D02*
X105650D01*
X108169D02*
X109250D01*
X96450Y75591D02*
X97450D01*
X100511D02*
X101615D01*
X101720D02*
X102789D01*
X104650D02*
X105650D01*
X108157D02*
X109233D01*
X96450Y75685D02*
X97450D01*
X100456D02*
X101591D01*
X101767D02*
X102844D01*
X104650D02*
X105650D01*
X108122D02*
X109217D01*
X96450Y75778D02*
X97450D01*
X100400D02*
X101568D01*
X101814D02*
X102900D01*
X104650D02*
X105650D01*
X108047D02*
X109199D01*
X96450Y75872D02*
X97450D01*
X100344D02*
X101538D01*
X101863D02*
X102956D01*
X104650D02*
X105650D01*
X107972D02*
X109182D01*
X96450Y75966D02*
X97450D01*
X100289D02*
X101489D01*
X101918D02*
X103011D01*
X104650D02*
X105650D01*
X107897D02*
X109165D01*
X96450Y76059D02*
X97450D01*
X100233D02*
X101439D01*
X101973D02*
X103067D01*
X104650D02*
X105650D01*
X107822D02*
X109144D01*
X96450Y76153D02*
X97450D01*
X100178D02*
X101389D01*
X102028D02*
X103122D01*
X104650D02*
X105650D01*
X107745D02*
X109085D01*
X96450Y76247D02*
X97450D01*
X100122D02*
X101340D01*
X102083D02*
X103178D01*
X104650D02*
X105650D01*
X107605D02*
X109027D01*
X96450Y76341D02*
X97450D01*
X100067D02*
X101290D01*
X102139D02*
X103233D01*
X104650D02*
X105650D01*
X107464D02*
X108969D01*
X96450Y76434D02*
X97450D01*
X100011D02*
X101241D01*
X102194D02*
X103289D01*
X104650D02*
X105650D01*
X107324D02*
X108910D01*
X96450Y76528D02*
X97450D01*
X99956D02*
X101191D01*
X102249D02*
X103344D01*
X104650D02*
X105650D01*
X107183D02*
X108851D01*
X96450Y76622D02*
X97450D01*
X99900D02*
X101141D01*
X102304D02*
X103400D01*
X104650D02*
X105650D01*
X106577D02*
X108793D01*
X94950Y76715D02*
X98950D01*
X99844D02*
X101092D01*
X102359D02*
X103456D01*
X104650D02*
X108734D01*
X94950Y76809D02*
X98950D01*
X99789D02*
X101042D01*
X102414D02*
X103511D01*
X104650D02*
X108676D01*
X94950Y76903D02*
X98950D01*
X99733D02*
X100993D01*
X102469D02*
X103567D01*
X104650D02*
X108555D01*
X94950Y76996D02*
X98950D01*
X99678D02*
X100943D01*
X102524D02*
X103622D01*
X104650D02*
X108386D01*
X94950Y77090D02*
X98950D01*
X99622D02*
X100893D01*
X102580D02*
X103678D01*
X104650D02*
X108218D01*
X94950Y77184D02*
X98950D01*
X99567D02*
X100844D01*
X102635D02*
X103733D01*
X104650D02*
X108049D01*
X94950Y77278D02*
X98950D01*
X99511D02*
X100794D01*
X102690D02*
X103789D01*
X104650D02*
X107880D01*
X94950Y77371D02*
X98950D01*
X99456D02*
X100744D01*
X102745D02*
X103844D01*
X104650D02*
X107612D01*
X94950Y77465D02*
X98950D01*
X99400D02*
X100695D01*
X102800D02*
X103900D01*
X104650D02*
X107003D01*
X120850Y40950D02*
X120750Y40050D01*
X120250Y39350*
X119550Y38850*
X118550Y38750*
X117850Y38850*
X117350Y39050*
Y39950*
X117950Y39650*
X118550Y39550*
X119150Y39650*
X119550Y39850*
X119750Y40350*
X119850Y40850*
Y41250*
X119350Y40750*
X118650Y40550*
X117950Y40650*
X117450Y41050*
X117150Y41650*
X117050Y42450*
X117150Y43250*
X117550Y43950*
X118050Y44350*
X118750Y44550*
X119350Y44450*
X119850Y43950*
Y44450*
X120850*
Y40950*
X119850Y42850D02*
X119750Y43150D01*
X119650Y43450*
X119350Y43650*
X118950Y43750*
X118650Y43650*
X118350Y43450*
X118150Y43050*
X118050Y42450*
X118150Y42050*
X118250Y41650*
X118550Y41450*
X118950Y41350*
X119350Y41450*
X119650Y41650*
X119750Y41950*
X119850Y42450*
Y42850*
X122950Y41150D02*
Y38850D01*
X121950*
Y44450*
X122950*
Y43850*
X123450Y44350*
X124250Y44550*
X124850Y44450*
X125350Y44050*
X125650Y43450*
X125750Y42650*
X125650Y41750*
X125250Y41150*
X124750Y40650*
X124050Y40550*
X123450Y40650*
X122950Y41150*
Y42250D02*
Y41950D01*
X123150Y41650*
X123450Y41450*
X123750Y41350*
X124150Y41450*
X124550Y41650*
X124650Y42050*
X124750Y42650*
X124650Y43150*
X124550Y43450*
X124250Y43650*
X123850Y43750*
X123450Y43650*
X123150Y43450*
X122950Y43050*
Y42650*
Y42250*
X126550Y45750D02*
X126750Y46150D01*
X127150Y46350*
X127550Y46150*
X127750Y45750*
X127550Y45350*
X127150Y45250*
X126750Y45450*
X126550Y45750*
X126650Y40650D02*
Y44450D01*
X127650*
Y40650*
X126650*
X128550Y42550D02*
X128650Y43350D01*
X129150Y43950*
X129750Y44450*
X130550Y44550*
X131450Y44450*
X132050Y44050*
X132450Y43350*
X132550Y42550*
X132450Y41750*
X132050Y41050*
X131350Y40650*
X130550Y40550*
X129750Y40650*
X129050Y41050*
X128650Y41750*
X128550Y42550*
X129550D02*
X129650Y42050D01*
X129850Y41650*
X130150Y41450*
X130550Y41350*
X131050Y41450*
X131350Y41650*
X131450Y42050*
X131550Y42550*
X131450Y43050*
X131350Y43450*
X130950Y43650*
X130550Y43750*
X130150Y43650*
X129850Y43450*
X129650Y43050*
X129550Y42550*
X134450Y41550D02*
X136650D01*
Y40650*
X133350*
Y41050*
X133450Y41850*
X133950Y42550*
X134350Y43050*
X135050Y43650*
X135350Y43850*
X135550Y44050*
X135650Y44550*
Y44950*
X135450Y45150*
X135150Y45250*
X134850Y45350*
X134150Y45250*
X133550Y44850*
Y45750*
X134250Y46050*
X134950Y46150*
X135650Y46050*
X136250Y45750*
X136550Y45250*
X136650Y44650*
X136550Y43950*
X136250Y43450*
X135850Y43050*
X135350Y42650*
X134950Y42350*
X134650Y42050*
X134450Y41750*
Y41550*
X117894Y38844D02*
X119487D01*
X117631Y38937D02*
X119672D01*
X121950D02*
X122950D01*
X117397Y39031D02*
X119804D01*
X121950D02*
X122950D01*
X117350Y39125D02*
X119935D01*
X121950D02*
X122950D01*
X117350Y39219D02*
X120066D01*
X121950D02*
X122950D01*
X117350Y39312D02*
X120197D01*
X121950D02*
X122950D01*
X117350Y39406D02*
X120290D01*
X121950D02*
X122950D01*
X117350Y39500D02*
X120357D01*
X121950D02*
X122950D01*
X117350Y39593D02*
X118290D01*
X118810D02*
X120424D01*
X121950D02*
X122950D01*
X117350Y39687D02*
X117876D01*
X119224D02*
X120491D01*
X121950D02*
X122950D01*
X117350Y39781D02*
X117689D01*
X119411D02*
X120557D01*
X121950D02*
X122950D01*
X117350Y39874D02*
X117501D01*
X119560D02*
X120624D01*
X121950D02*
X122950D01*
X119597Y39968D02*
X120691D01*
X121950D02*
X122950D01*
X119635Y40062D02*
X120751D01*
X121950D02*
X122950D01*
X119672Y40156D02*
X120762D01*
X121950D02*
X122950D01*
X119710Y40249D02*
X120772D01*
X121950D02*
X122950D01*
X119747Y40343D02*
X120783D01*
X121950D02*
X122950D01*
X119767Y40437D02*
X120793D01*
X121950D02*
X122950D01*
X119786Y40530D02*
X120804D01*
X121950D02*
X122950D01*
X118132Y40624D02*
X118909D01*
X119805D02*
X120814D01*
X121950D02*
X122950D01*
X123606D02*
X124568D01*
X129958D02*
X131142D01*
X117865Y40718D02*
X119237D01*
X119824D02*
X120824D01*
X121950D02*
X122950D01*
X123382D02*
X124818D01*
X126650D02*
X127650D01*
X129631D02*
X131469D01*
X133350D02*
X136650D01*
X117748Y40811D02*
X119411D01*
X119842D02*
X120835D01*
X121950D02*
X122950D01*
X123289D02*
X124911D01*
X126650D02*
X127650D01*
X129467D02*
X131632D01*
X133350D02*
X136650D01*
X117631Y40905D02*
X119505D01*
X119850D02*
X120845D01*
X121950D02*
X122950D01*
X123195D02*
X125005D01*
X126650D02*
X127650D01*
X129304D02*
X131796D01*
X133350D02*
X136650D01*
X117514Y40999D02*
X119599D01*
X119850D02*
X120850D01*
X121950D02*
X122950D01*
X123101D02*
X125099D01*
X126650D02*
X127650D01*
X129139D02*
X131960D01*
X133350D02*
X136650D01*
X117429Y41093D02*
X119693D01*
X119850D02*
X120850D01*
X121950D02*
X122950D01*
X123007D02*
X125193D01*
X126650D02*
X127650D01*
X129026D02*
X132074D01*
X133356D02*
X136650D01*
X117382Y41186D02*
X119786D01*
X119850D02*
X120850D01*
X121950D02*
X125274D01*
X126650D02*
X127650D01*
X128972D02*
X132128D01*
X133367D02*
X136650D01*
X117335Y41280D02*
X120850D01*
X121950D02*
X125337D01*
X126650D02*
X127650D01*
X128919D02*
X132181D01*
X133379D02*
X136650D01*
X117288Y41374D02*
X118856D01*
X119044D02*
X120850D01*
X121950D02*
X123679D01*
X123844D02*
X125399D01*
X126650D02*
X127650D01*
X128865D02*
X130456D01*
X130668D02*
X132235D01*
X133391D02*
X136650D01*
X117241Y41467D02*
X118524D01*
X119376D02*
X120850D01*
X121950D02*
X123424D01*
X124185D02*
X125461D01*
X126650D02*
X127650D01*
X128811D02*
X130124D01*
X131076D02*
X132289D01*
X133402D02*
X136650D01*
X117194Y41561D02*
X118383D01*
X119517D02*
X120850D01*
X121950D02*
X123283D01*
X124372D02*
X125524D01*
X126650D02*
X127650D01*
X128758D02*
X129983D01*
X131217D02*
X132342D01*
X133414D02*
X134450D01*
X117149Y41655D02*
X118249D01*
X119652D02*
X120850D01*
X121950D02*
X123147D01*
X124551D02*
X125587D01*
X126650D02*
X127650D01*
X128704D02*
X129848D01*
X131351D02*
X132396D01*
X133426D02*
X134450D01*
X117138Y41748D02*
X118226D01*
X119683D02*
X120850D01*
X121950D02*
X123084D01*
X124575D02*
X125650D01*
X126650D02*
X127650D01*
X128650D02*
X129801D01*
X131375D02*
X132450D01*
X133437D02*
X134450D01*
X117126Y41842D02*
X118202D01*
X119714D02*
X120850D01*
X121950D02*
X123022D01*
X124598D02*
X125660D01*
X126650D02*
X127650D01*
X128639D02*
X129754D01*
X131398D02*
X132461D01*
X133449D02*
X134511D01*
X117114Y41936D02*
X118179D01*
X119745D02*
X120850D01*
X121950D02*
X122959D01*
X124622D02*
X125670D01*
X126650D02*
X127650D01*
X128627D02*
X129707D01*
X131422D02*
X132473D01*
X133511D02*
X134574D01*
X117102Y42030D02*
X118155D01*
X119766D02*
X120850D01*
X121950D02*
X122950D01*
X124645D02*
X125681D01*
X126650D02*
X127650D01*
X128615D02*
X129660D01*
X131445D02*
X132485D01*
X133578D02*
X134636D01*
X117091Y42123D02*
X118132D01*
X119785D02*
X120850D01*
X121950D02*
X122950D01*
X124662D02*
X125691D01*
X126650D02*
X127650D01*
X128603D02*
X129635D01*
X131465D02*
X132496D01*
X133645D02*
X134723D01*
X117079Y42217D02*
X118108D01*
X119804D02*
X120850D01*
X121950D02*
X122950D01*
X124678D02*
X125702D01*
X126650D02*
X127650D01*
X128592D02*
X129617D01*
X131483D02*
X132508D01*
X133712D02*
X134817D01*
X117067Y42311D02*
X118085D01*
X119822D02*
X120850D01*
X121950D02*
X122950D01*
X124693D02*
X125712D01*
X126650D02*
X127650D01*
X128580D02*
X129598D01*
X131502D02*
X132520D01*
X133779D02*
X134911D01*
X117056Y42404D02*
X118061D01*
X119841D02*
X120850D01*
X121950D02*
X122950D01*
X124709D02*
X125723D01*
X126650D02*
X127650D01*
X128568D02*
X129579D01*
X131521D02*
X132532D01*
X133846D02*
X135022D01*
X117056Y42498D02*
X118058D01*
X119850D02*
X120850D01*
X121950D02*
X122950D01*
X124725D02*
X125733D01*
X126650D02*
X127650D01*
X128556D02*
X129560D01*
X131540D02*
X132543D01*
X133913D02*
X135147D01*
X117068Y42592D02*
X118074D01*
X119850D02*
X120850D01*
X121950D02*
X122950D01*
X124740D02*
X125744D01*
X126650D02*
X127650D01*
X128555D02*
X129558D01*
X131542D02*
X132545D01*
X133983D02*
X135272D01*
X117080Y42685D02*
X118089D01*
X119850D02*
X120850D01*
X121950D02*
X122950D01*
X124743D02*
X125746D01*
X126650D02*
X127650D01*
X128567D02*
X129577D01*
X131523D02*
X132533D01*
X134058D02*
X135394D01*
X117091Y42779D02*
X118105D01*
X119850D02*
X120850D01*
X121950D02*
X122950D01*
X124724D02*
X125734D01*
X126650D02*
X127650D01*
X128579D02*
X129596D01*
X131504D02*
X132521D01*
X134133D02*
X135511D01*
X117103Y42873D02*
X118120D01*
X119843D02*
X120850D01*
X121950D02*
X122950D01*
X124706D02*
X125722D01*
X126650D02*
X127650D01*
X128591D02*
X129615D01*
X131485D02*
X132510D01*
X134208D02*
X135628D01*
X117115Y42967D02*
X118136D01*
X119811D02*
X120850D01*
X121950D02*
X122950D01*
X124687D02*
X125711D01*
X126650D02*
X127650D01*
X128602D02*
X129633D01*
X131467D02*
X132498D01*
X134283D02*
X135746D01*
X117126Y43060D02*
X118155D01*
X119780D02*
X120850D01*
X121950D02*
X122955D01*
X124668D02*
X125699D01*
X126650D02*
X127650D01*
X128614D02*
X129655D01*
X131447D02*
X132486D01*
X134362D02*
X135860D01*
X117138Y43154D02*
X118202D01*
X119749D02*
X120850D01*
X121950D02*
X123002D01*
X124649D02*
X125687D01*
X126650D02*
X127650D01*
X128626D02*
X129702D01*
X131424D02*
X132474D01*
X134471D02*
X135954D01*
X117150Y43248D02*
X118249D01*
X119717D02*
X120850D01*
X121950D02*
X123049D01*
X124617D02*
X125675D01*
X126650D02*
X127650D01*
X128637D02*
X129749D01*
X131400D02*
X132463D01*
X134581D02*
X136048D01*
X117202Y43341D02*
X118296D01*
X119686D02*
X120850D01*
X121950D02*
X123096D01*
X124586D02*
X125664D01*
X126650D02*
X127650D01*
X128649D02*
X129796D01*
X131377D02*
X132451D01*
X134690D02*
X136141D01*
X117256Y43435D02*
X118343D01*
X119655D02*
X120850D01*
X121950D02*
X123143D01*
X124555D02*
X125652D01*
X126650D02*
X127650D01*
X128721D02*
X129843D01*
X131354D02*
X132402D01*
X134799D02*
X136235D01*
X117309Y43529D02*
X118468D01*
X119532D02*
X120850D01*
X121950D02*
X123268D01*
X124432D02*
X125611D01*
X126650D02*
X127650D01*
X128799D02*
X129968D01*
X131193D02*
X132348D01*
X134909D02*
X136297D01*
X117363Y43622D02*
X118609D01*
X119391D02*
X120850D01*
X121950D02*
X123409D01*
X124291D02*
X125564D01*
X126650D02*
X127650D01*
X128877D02*
X130109D01*
X131005D02*
X132294D01*
X135018D02*
X136354D01*
X117417Y43716D02*
X118848D01*
X119085D02*
X120850D01*
X121950D02*
X123715D01*
X123985D02*
X125517D01*
X126650D02*
X127650D01*
X128955D02*
X130415D01*
X130685D02*
X132241D01*
X135149D02*
X136410D01*
X117470Y43810D02*
X120850D01*
X121950D02*
X125470D01*
X126650D02*
X127650D01*
X129033D02*
X132187D01*
X135290D02*
X136466D01*
X117524Y43904D02*
X120850D01*
X121950D02*
X122950D01*
X123004D02*
X125423D01*
X126650D02*
X127650D01*
X129111D02*
X132134D01*
X135404D02*
X136522D01*
X117609Y43997D02*
X119803D01*
X119850D02*
X120850D01*
X121950D02*
X122950D01*
X123097D02*
X125376D01*
X126650D02*
X127650D01*
X129207D02*
X132080D01*
X135497D02*
X136557D01*
X117726Y44091D02*
X119709D01*
X119850D02*
X120850D01*
X121950D02*
X122950D01*
X123191D02*
X125299D01*
X126650D02*
X127650D01*
X129319D02*
X131989D01*
X135558D02*
X136570D01*
X117843Y44185D02*
X119615D01*
X119850D02*
X120850D01*
X121950D02*
X122950D01*
X123285D02*
X125182D01*
X126650D02*
X127650D01*
X129431D02*
X131848D01*
X135577D02*
X136583D01*
X117961Y44278D02*
X119522D01*
X119850D02*
X120850D01*
X121950D02*
X122950D01*
X123378D02*
X125065D01*
X126650D02*
X127650D01*
X129544D02*
X131707D01*
X135596D02*
X136597D01*
X118127Y44372D02*
X119428D01*
X119850D02*
X120850D01*
X121950D02*
X122950D01*
X123538D02*
X124948D01*
X126650D02*
X127650D01*
X129656D02*
X131567D01*
X135615D02*
X136610D01*
X118455Y44466D02*
X119256D01*
X123913D02*
X124756D01*
X129876D02*
X131308D01*
X135633D02*
X136624D01*
X135650Y44559D02*
X136637D01*
X135650Y44653D02*
X136650D01*
X135650Y44747D02*
X136634D01*
X135650Y44841D02*
X136618D01*
X133550Y44934D02*
X133676D01*
X135650D02*
X136603D01*
X133550Y45028D02*
X133817D01*
X135572D02*
X136587D01*
X133550Y45122D02*
X133957D01*
X135478D02*
X136571D01*
X133550Y45215D02*
X134098D01*
X135254D02*
X136556D01*
X127032Y45309D02*
X127386D01*
X133550D02*
X134563D01*
X134973D02*
X136515D01*
X126844Y45403D02*
X127576D01*
X133550D02*
X136458D01*
X126719Y45496D02*
X127623D01*
X133550D02*
X136402D01*
X126657Y45590D02*
X127670D01*
X133550D02*
X136346D01*
X126594Y45684D02*
X127717D01*
X133550D02*
X136290D01*
X126564Y45778D02*
X127736D01*
X133614D02*
X136195D01*
X126611Y45871D02*
X127689D01*
X133833D02*
X136007D01*
X126657Y45965D02*
X127643D01*
X134052D02*
X135820D01*
X126704Y46059D02*
X127596D01*
X134311D02*
X135589D01*
X126755Y46152D02*
X127545D01*
X126942Y46246D02*
X127358D01*
X127130Y46340D02*
X127170D01*
X165250Y7650D02*
X165150Y6450D01*
X164650Y5550*
X163950Y5050*
X162950Y4850*
X161850Y5050*
X161150Y5550*
X160750Y6350*
X160650Y7550*
X160850Y8650*
X161250Y9450*
X161950Y10050*
X163050Y10250*
X163950Y10050*
X164650Y9550*
X165150Y8750*
X165250Y7650*
X164550Y7550D02*
X164450Y8350D01*
X164250Y9050*
X163750Y9450*
X162950Y9650*
X162250Y9450*
X161750Y9050*
X161450Y8350*
X161350Y7550*
X161450Y6750*
X161650Y6050*
X162150Y5550*
X162950Y5450*
X163750Y5650*
X164250Y6050*
X164450Y6750*
X164550Y7550*
X169550Y6850D02*
X169450Y6050D01*
X169150Y5350*
X168650Y4950*
X168050Y4850*
X167750*
X167450Y4950*
X167250Y5150*
X166950Y5350*
Y3550*
X166850Y3450*
X166750*
X166550*
X166450*
X166350*
X166250Y3550*
Y8650*
X166350Y8750*
X166450*
X166550*
X166750*
X166850Y8650*
Y8150*
X167150Y8450*
X167450Y8650*
X167750Y8750*
X168150Y8850*
X168750Y8650*
X169250Y8250*
X169450Y7650*
X169550Y6850*
X168850D02*
Y7350D01*
X168650Y7850*
X168450Y8150*
X167950Y8250*
X167750*
X167450Y8050*
X167250Y7850*
X166950Y7550*
Y6150*
X167450Y5650*
X167950Y5450*
X168350Y5550*
X168650Y5850*
X168850Y6350*
Y6850*
X173650Y7050D02*
X173550Y6850D01*
X173350Y6750*
X171050*
X171150Y6150*
X171350Y5750*
X171650Y5450*
X172150Y5350*
X172650*
X172950Y5450*
X173250Y5550*
X173350Y5650*
X173450Y5550*
Y5450*
Y5350*
Y5250*
X173350Y5150*
X173250Y5050*
X172950Y4950*
X172550Y4850*
X172150*
X171350Y4950*
X170850Y5350*
X170450Y5950*
X170350Y6850*
X170450Y7650*
X170850Y8250*
X171350Y8750*
X172050Y8850*
X172750Y8750*
X173250Y8350*
X173550Y7850*
X173650Y7150*
Y7050*
X172950Y7250D02*
Y7650D01*
X172750Y8050*
X172450Y8250*
X172050Y8350*
X171650Y8250*
X171350Y8050*
X171150Y7650*
X171050Y7250*
X172950*
X177750Y5050D02*
X177650Y4950D01*
X177550*
X177450*
X177250*
X177150*
X177050Y5050*
Y7150*
Y7650*
X176850Y7950*
X176650Y8150*
X176350Y8250*
X175850Y8050*
X175350Y7550*
Y5050*
X175250Y4950*
X175150*
X174950*
X174850*
X174750*
X174650Y5050*
Y8650*
X174750Y8750*
X174850*
X174950*
X175150*
X175250*
Y8650*
Y8150*
X175850Y8650*
X176450Y8850*
X177050Y8750*
X177450Y8350*
X177650Y7950*
X177750Y7250*
Y5050*
X182450Y6450D02*
X182350Y5950D01*
X182250Y5550*
X181950Y5350*
X181550Y5150*
X181150Y4950*
X180650*
X179350*
X179150Y5050*
X179050Y5250*
Y9850*
X179150Y10050*
X179350Y10150*
X180450*
X181250Y10050*
X181750Y9750*
X182050Y9350*
X182150Y8850*
Y8450*
X181950Y8150*
X181750Y7850*
X181450Y7650*
X181850Y7550*
X182150Y7250*
X182350Y6850*
X182450Y6450*
X181450Y8750D02*
Y9050D01*
X181250Y9350*
X180950Y9450*
X180450Y9550*
X179750*
Y7850*
X180550*
X180950Y7950*
X181250Y8150*
X181450Y8350*
Y8750*
X181750Y6450D02*
X181650Y6850D01*
X181450Y7050*
X181150Y7250*
X180550Y7350*
X179750*
Y5550*
X180750*
X181150*
X181450Y5750*
X181650Y6050*
X181750Y6450*
X187050Y5650D02*
Y5550D01*
Y5450*
Y5350*
X186950*
X186750Y5150*
X186450Y5050*
X186050Y4850*
X185450*
X184550Y5050*
X183850Y5550*
X183450Y6350*
X183250Y7450*
X183450Y8650*
X183850Y9550*
X184650Y10050*
X185550Y10250*
X186050Y10150*
X186450Y10050*
X186750Y9950*
X186950Y9750*
X187050*
Y9650*
Y9550*
Y9450*
Y9350*
Y9250*
X186950Y9150*
X186750Y9250*
X186450Y9350*
X186050Y9550*
X185550Y9650*
X184850Y9450*
X184350Y9050*
X184050Y8450*
X183950Y7550*
X184050Y6650*
X184350Y5950*
X184850Y5550*
X185550Y5450*
X186050Y5550*
X186550Y5650*
X186750Y5850*
X186950Y5950*
X187050Y5850*
Y5750*
Y5650*
X188650Y5050D02*
X188550Y4950D01*
X188450*
X188350*
X188150*
X188050*
X187950Y5050*
Y10050*
X188050Y10150*
X188150*
X188350*
X188450*
X188550*
X188650Y10050*
Y5050*
X166300Y3500D02*
X166900D01*
X166250Y3593D02*
X166950D01*
X166250Y3687D02*
X166950D01*
X166250Y3781D02*
X166950D01*
X166250Y3874D02*
X166950D01*
X166250Y3968D02*
X166950D01*
X166250Y4062D02*
X166950D01*
X166250Y4156D02*
X166950D01*
X166250Y4249D02*
X166950D01*
X166250Y4343D02*
X166950D01*
X166250Y4437D02*
X166950D01*
X166250Y4530D02*
X166950D01*
X166250Y4624D02*
X166950D01*
X166250Y4718D02*
X166950D01*
X166250Y4811D02*
X166950D01*
X162647Y4905D02*
X163226D01*
X166250D02*
X166950D01*
X167585D02*
X168381D01*
X171709D02*
X172770D01*
X185202D02*
X186160D01*
X162131Y4999D02*
X163694D01*
X166250D02*
X166950D01*
X167401D02*
X168711D01*
X171289D02*
X173096D01*
X174701D02*
X175299D01*
X177101D02*
X177699D01*
X179252D02*
X181248D01*
X184780D02*
X186348D01*
X188001D02*
X188599D01*
X161791Y5093D02*
X164009D01*
X166250D02*
X166950D01*
X167307D02*
X168828D01*
X171172D02*
X173293D01*
X174650D02*
X175350D01*
X177050D02*
X177750D01*
X179129D02*
X181435D01*
X184491D02*
X186578D01*
X187950D02*
X188650D01*
X161659Y5186D02*
X164141D01*
X166250D02*
X166950D01*
X167196D02*
X168945D01*
X171055D02*
X173386D01*
X174650D02*
X175350D01*
X177050D02*
X177750D01*
X179082D02*
X181622D01*
X184359D02*
X186786D01*
X187950D02*
X188650D01*
X161528Y5280D02*
X164272D01*
X166250D02*
X166950D01*
X167055D02*
X169062D01*
X170937D02*
X173450D01*
X174650D02*
X175350D01*
X177050D02*
X177750D01*
X179050D02*
X181810D01*
X184228D02*
X186880D01*
X187950D02*
X188650D01*
X161397Y5374D02*
X164403D01*
X166250D02*
X169160D01*
X170834D02*
X172032D01*
X172721D02*
X173450D01*
X174650D02*
X175350D01*
X177050D02*
X177750D01*
X179050D02*
X181985D01*
X184097D02*
X187050D01*
X187950D02*
X188650D01*
X161266Y5467D02*
X162811D01*
X163019D02*
X164534D01*
X166250D02*
X167907D01*
X168019D02*
X169200D01*
X170772D02*
X171633D01*
X173002D02*
X173450D01*
X174650D02*
X175350D01*
X177050D02*
X177750D01*
X179050D02*
X182126D01*
X183966D02*
X185429D01*
X185637D02*
X187050D01*
X187950D02*
X188650D01*
X161144Y5561D02*
X162139D01*
X163394D02*
X164656D01*
X166250D02*
X167672D01*
X168361D02*
X169241D01*
X170709D02*
X171539D01*
X173261D02*
X173439D01*
X174650D02*
X175350D01*
X177050D02*
X177750D01*
X179050D02*
X179750D01*
X181167D02*
X182253D01*
X183844D02*
X184836D01*
X186105D02*
X187050D01*
X187950D02*
X188650D01*
X161098Y5655D02*
X162045D01*
X163756D02*
X164708D01*
X166250D02*
X167445D01*
X168455D02*
X169281D01*
X170647D02*
X171445D01*
X174650D02*
X175350D01*
X177050D02*
X177750D01*
X179050D02*
X179750D01*
X181307D02*
X182276D01*
X183798D02*
X184719D01*
X186555D02*
X187050D01*
X187950D02*
X188650D01*
X161051Y5748D02*
X161952D01*
X163873D02*
X164760D01*
X166250D02*
X167352D01*
X168548D02*
X169321D01*
X170584D02*
X171350D01*
X174650D02*
X175350D01*
X177050D02*
X177750D01*
X179050D02*
X179750D01*
X181449D02*
X182300D01*
X183751D02*
X184602D01*
X186648D02*
X187050D01*
X187950D02*
X188650D01*
X161004Y5842D02*
X161858D01*
X163990D02*
X164812D01*
X166250D02*
X167258D01*
X168642D02*
X169361D01*
X170522D02*
X171304D01*
X174650D02*
X175350D01*
X177050D02*
X177750D01*
X179050D02*
X179750D01*
X181511D02*
X182323D01*
X183704D02*
X184485D01*
X186742D02*
X187050D01*
X187950D02*
X188650D01*
X160957Y5936D02*
X161764D01*
X164107D02*
X164864D01*
X166250D02*
X167164D01*
X168684D02*
X169401D01*
X170459D02*
X171257D01*
X174650D02*
X175350D01*
X177050D02*
X177750D01*
X179050D02*
X179750D01*
X181574D02*
X182346D01*
X183657D02*
X184368D01*
X186922D02*
X186964D01*
X187950D02*
X188650D01*
X160910Y6030D02*
X161670D01*
X164224D02*
X164917D01*
X166250D02*
X167070D01*
X168722D02*
X169441D01*
X170441D02*
X171210D01*
X174650D02*
X175350D01*
X177050D02*
X177750D01*
X179050D02*
X179750D01*
X181636D02*
X182366D01*
X183610D02*
X184316D01*
X187950D02*
X188650D01*
X160863Y6123D02*
X161629D01*
X164271D02*
X164969D01*
X166250D02*
X166977D01*
X168759D02*
X169459D01*
X170431D02*
X171163D01*
X174650D02*
X175350D01*
X177050D02*
X177750D01*
X179050D02*
X179750D01*
X181669D02*
X182385D01*
X183563D02*
X184276D01*
X187950D02*
X188650D01*
X160817Y6217D02*
X161602D01*
X164298D02*
X165020D01*
X166250D02*
X166950D01*
X168797D02*
X169471D01*
X170420D02*
X171139D01*
X174650D02*
X175350D01*
X177050D02*
X177750D01*
X179050D02*
X179750D01*
X181692D02*
X182404D01*
X183517D02*
X184235D01*
X187950D02*
X188650D01*
X160770Y6311D02*
X161576D01*
X164324D02*
X165072D01*
X166250D02*
X166950D01*
X168834D02*
X169483D01*
X170410D02*
X171123D01*
X174650D02*
X175350D01*
X177050D02*
X177750D01*
X179050D02*
X179750D01*
X181715D02*
X182422D01*
X183470D02*
X184195D01*
X187950D02*
X188650D01*
X160745Y6404D02*
X161549D01*
X164351D02*
X165125D01*
X166250D02*
X166950D01*
X168850D02*
X169494D01*
X170400D02*
X171107D01*
X174650D02*
X175350D01*
X177050D02*
X177750D01*
X179050D02*
X179750D01*
X181739D02*
X182441D01*
X183440D02*
X184155D01*
X187950D02*
X188650D01*
X160738Y6498D02*
X161522D01*
X164378D02*
X165154D01*
X166250D02*
X166950D01*
X168850D02*
X169506D01*
X170389D02*
X171092D01*
X174650D02*
X175350D01*
X177050D02*
X177750D01*
X179050D02*
X179750D01*
X181738D02*
X182438D01*
X183423D02*
X184115D01*
X187950D02*
X188650D01*
X160730Y6592D02*
X161495D01*
X164405D02*
X165162D01*
X166250D02*
X166950D01*
X168850D02*
X169518D01*
X170379D02*
X171076D01*
X174650D02*
X175350D01*
X177050D02*
X177750D01*
X179050D02*
X179750D01*
X181715D02*
X182415D01*
X183406D02*
X184075D01*
X187950D02*
X188650D01*
X160722Y6685D02*
X161469D01*
X164431D02*
X165170D01*
X166250D02*
X166950D01*
X168850D02*
X169530D01*
X170368D02*
X171061D01*
X174650D02*
X175350D01*
X177050D02*
X177750D01*
X179050D02*
X179750D01*
X181691D02*
X182391D01*
X183389D02*
X184046D01*
X187950D02*
X188650D01*
X160714Y6779D02*
X161446D01*
X164454D02*
X165178D01*
X166250D02*
X166950D01*
X168850D02*
X169541D01*
X170358D02*
X173408D01*
X174650D02*
X175350D01*
X177050D02*
X177750D01*
X179050D02*
X179750D01*
X181668D02*
X182368D01*
X183372D02*
X184036D01*
X187950D02*
X188650D01*
X160706Y6873D02*
X161435D01*
X164465D02*
X165185D01*
X166250D02*
X166950D01*
X168850D02*
X169547D01*
X170353D02*
X173561D01*
X174650D02*
X175350D01*
X177050D02*
X177750D01*
X179050D02*
X179750D01*
X181627D02*
X182339D01*
X183355D02*
X184025D01*
X187950D02*
X188650D01*
X160698Y6967D02*
X161423D01*
X164477D02*
X165193D01*
X166250D02*
X166950D01*
X168850D02*
X169535D01*
X170365D02*
X173608D01*
X174650D02*
X175350D01*
X177050D02*
X177750D01*
X179050D02*
X179750D01*
X181533D02*
X182292D01*
X183338D02*
X184015D01*
X187950D02*
X188650D01*
X160691Y7060D02*
X161411D01*
X164489D02*
X165201D01*
X166250D02*
X166950D01*
X168850D02*
X169524D01*
X170376D02*
X173650D01*
X174650D02*
X175350D01*
X177050D02*
X177750D01*
X179050D02*
X179750D01*
X181435D02*
X182245D01*
X183321D02*
X184004D01*
X187950D02*
X188650D01*
X160683Y7154D02*
X161400D01*
X164500D02*
X165209D01*
X166250D02*
X166950D01*
X168850D02*
X169512D01*
X170388D02*
X173650D01*
X174650D02*
X175350D01*
X177050D02*
X177750D01*
X179050D02*
X179750D01*
X181294D02*
X182198D01*
X183304D02*
X183994D01*
X187950D02*
X188650D01*
X160675Y7248D02*
X161388D01*
X164512D02*
X165217D01*
X166250D02*
X166950D01*
X168850D02*
X169500D01*
X170400D02*
X173636D01*
X174650D02*
X175350D01*
X177050D02*
X177750D01*
X179050D02*
X179750D01*
X181154D02*
X182151D01*
X183287D02*
X183983D01*
X187950D02*
X188650D01*
X160667Y7341D02*
X161376D01*
X164524D02*
X165224D01*
X166250D02*
X166950D01*
X168850D02*
X169489D01*
X170411D02*
X171073D01*
X172950D02*
X173623D01*
X174650D02*
X175350D01*
X177050D02*
X177737D01*
X179050D02*
X179750D01*
X180602D02*
X182059D01*
X183270D02*
X183973D01*
X187950D02*
X188650D01*
X160659Y7435D02*
X161365D01*
X164536D02*
X165232D01*
X166250D02*
X166950D01*
X168816D02*
X169477D01*
X170423D02*
X171096D01*
X172950D02*
X173609D01*
X174650D02*
X175350D01*
X177050D02*
X177724D01*
X179050D02*
X181965D01*
X183253D02*
X183963D01*
X187950D02*
X188650D01*
X160652Y7529D02*
X161353D01*
X164547D02*
X165240D01*
X166250D02*
X166950D01*
X168778D02*
X169465D01*
X170435D02*
X171120D01*
X172950D02*
X173596D01*
X174650D02*
X175350D01*
X177050D02*
X177710D01*
X179050D02*
X181871D01*
X183263D02*
X183952D01*
X187950D02*
X188650D01*
X160663Y7622D02*
X161359D01*
X164541D02*
X165248D01*
X166250D02*
X167022D01*
X168741D02*
X169454D01*
X170446D02*
X171143D01*
X172950D02*
X173583D01*
X174650D02*
X175422D01*
X177050D02*
X177697D01*
X179050D02*
X181560D01*
X183279D02*
X183958D01*
X187950D02*
X188650D01*
X160680Y7716D02*
X161371D01*
X164529D02*
X165244D01*
X166250D02*
X167116D01*
X168704D02*
X169428D01*
X170494D02*
X171183D01*
X172917D02*
X173569D01*
X174650D02*
X175516D01*
X177006D02*
X177683D01*
X179050D02*
X181549D01*
X183294D02*
X183969D01*
X187950D02*
X188650D01*
X160697Y7810D02*
X161382D01*
X164517D02*
X165235D01*
X166250D02*
X167210D01*
X168666D02*
X169397D01*
X170557D02*
X171230D01*
X172870D02*
X173556D01*
X174650D02*
X175610D01*
X176943D02*
X177670D01*
X179050D02*
X181690D01*
X183310D02*
X183979D01*
X187950D02*
X188650D01*
X160714Y7904D02*
X161394D01*
X164506D02*
X165227D01*
X166250D02*
X167304D01*
X168614D02*
X169365D01*
X170619D02*
X171277D01*
X172823D02*
X173518D01*
X174650D02*
X175704D01*
X176881D02*
X177657D01*
X179050D02*
X179750D01*
X180764D02*
X181786D01*
X183326D02*
X183989D01*
X187950D02*
X188650D01*
X160731Y7997D02*
X161406D01*
X164494D02*
X165219D01*
X166250D02*
X167397D01*
X168552D02*
X169334D01*
X170681D02*
X171324D01*
X172776D02*
X173462D01*
X174650D02*
X175797D01*
X176803D02*
X177626D01*
X179050D02*
X179750D01*
X181021D02*
X181848D01*
X183341D02*
X184000D01*
X187950D02*
X188650D01*
X160748Y8091D02*
X161418D01*
X164482D02*
X165210D01*
X166250D02*
X167511D01*
X168489D02*
X169303D01*
X170744D02*
X171411D01*
X172689D02*
X173406D01*
X174650D02*
X175952D01*
X176709D02*
X177580D01*
X179050D02*
X179750D01*
X181161D02*
X181911D01*
X183357D02*
X184010D01*
X187950D02*
X188650D01*
X160765Y8185D02*
X161429D01*
X164470D02*
X165202D01*
X166250D02*
X166850D01*
X166885D02*
X167652D01*
X168277D02*
X169272D01*
X170806D02*
X171552D01*
X172548D02*
X173349D01*
X174650D02*
X175250D01*
X175292D02*
X176187D01*
X176546D02*
X177533D01*
X179050D02*
X179750D01*
X181285D02*
X181973D01*
X183372D02*
X184020D01*
X187950D02*
X188650D01*
X160782Y8278D02*
X161441D01*
X164459D02*
X165193D01*
X166250D02*
X166850D01*
X166978D02*
X169215D01*
X170878D02*
X171763D01*
X172337D02*
X173293D01*
X174650D02*
X175250D01*
X175404D02*
X177486D01*
X179050D02*
X179750D01*
X181378D02*
X182035D01*
X183388D02*
X184031D01*
X187950D02*
X188650D01*
X160800Y8372D02*
X161459D01*
X164444D02*
X165184D01*
X166250D02*
X166850D01*
X167072D02*
X169098D01*
X170972D02*
X173222D01*
X174650D02*
X175250D01*
X175517D02*
X177428D01*
X179050D02*
X179750D01*
X181450D02*
X182098D01*
X183404D02*
X184041D01*
X187950D02*
X188650D01*
X160817Y8466D02*
X161500D01*
X164417D02*
X165176D01*
X166250D02*
X166850D01*
X167174D02*
X168980D01*
X171066D02*
X173106D01*
X174650D02*
X175250D01*
X175629D02*
X177334D01*
X179050D02*
X179750D01*
X181450D02*
X182150D01*
X183419D02*
X184058D01*
X187950D02*
X188650D01*
X160833Y8559D02*
X161540D01*
X164390D02*
X165167D01*
X166250D02*
X166850D01*
X167314D02*
X168863D01*
X171159D02*
X172988D01*
X174650D02*
X175250D01*
X175741D02*
X177241D01*
X179050D02*
X179750D01*
X181450D02*
X182150D01*
X183435D02*
X184105D01*
X187950D02*
X188650D01*
X160852Y8653D02*
X161580D01*
X164363D02*
X165159D01*
X166253D02*
X166847D01*
X167459D02*
X168741D01*
X171253D02*
X172871D01*
X174653D02*
X175250D01*
X175859D02*
X177147D01*
X179050D02*
X179750D01*
X181450D02*
X182150D01*
X183452D02*
X184152D01*
X187950D02*
X188650D01*
X160898Y8747D02*
X161620D01*
X164337D02*
X165150D01*
X166347D02*
X166753D01*
X167741D02*
X168459D01*
X171347D02*
X172754D01*
X174747D02*
X175250D01*
X176141D02*
X177053D01*
X179050D02*
X179750D01*
X181450D02*
X182150D01*
X183493D02*
X184198D01*
X187950D02*
X188650D01*
X160945Y8841D02*
X161660D01*
X164310D02*
X165093D01*
X168112D02*
X168178D01*
X171984D02*
X172116D01*
X176422D02*
X176507D01*
X179050D02*
X179750D01*
X181450D02*
X182150D01*
X183535D02*
X184245D01*
X187950D02*
X188650D01*
X160992Y8934D02*
X161700D01*
X164283D02*
X165035D01*
X179050D02*
X179750D01*
X181450D02*
X182133D01*
X183576D02*
X184292D01*
X187950D02*
X188650D01*
X161039Y9028D02*
X161741D01*
X164256D02*
X164976D01*
X179050D02*
X179750D01*
X181450D02*
X182115D01*
X183618D02*
X184339D01*
X187950D02*
X188650D01*
X161086Y9122D02*
X161839D01*
X164160D02*
X164918D01*
X179050D02*
X179750D01*
X181402D02*
X182096D01*
X183659D02*
X184439D01*
X187950D02*
X188650D01*
X161133Y9215D02*
X161957D01*
X164043D02*
X164859D01*
X179050D02*
X179750D01*
X181340D02*
X182077D01*
X183701D02*
X184557D01*
X186819D02*
X187015D01*
X187950D02*
X188650D01*
X161180Y9309D02*
X162074D01*
X163926D02*
X164801D01*
X179050D02*
X179750D01*
X181277D02*
X182058D01*
X183743D02*
X184674D01*
X186573D02*
X187050D01*
X187950D02*
X188650D01*
X161226Y9403D02*
X162191D01*
X163809D02*
X164742D01*
X179050D02*
X179750D01*
X181092D02*
X182011D01*
X183785D02*
X184791D01*
X186344D02*
X187050D01*
X187950D02*
X188650D01*
X161304Y9496D02*
X162413D01*
X163564D02*
X164683D01*
X179050D02*
X179750D01*
X180718D02*
X181940D01*
X183826D02*
X185013D01*
X186157D02*
X187050D01*
X187950D02*
X188650D01*
X161413Y9590D02*
X162741D01*
X163189D02*
X164594D01*
X179050D02*
X181870D01*
X183914D02*
X185341D01*
X185849D02*
X187050D01*
X187950D02*
X188650D01*
X161523Y9684D02*
X164463D01*
X179050D02*
X181800D01*
X184064D02*
X187050D01*
X187950D02*
X188650D01*
X161632Y9778D02*
X164331D01*
X179050D02*
X181704D01*
X184214D02*
X186922D01*
X187950D02*
X188650D01*
X161741Y9871D02*
X164200D01*
X179061D02*
X181548D01*
X184364D02*
X186829D01*
X187950D02*
X188650D01*
X161851Y9965D02*
X164069D01*
X179107D02*
X181392D01*
X184514D02*
X186705D01*
X187950D02*
X188650D01*
X161998Y10059D02*
X163911D01*
X179167D02*
X181181D01*
X184689D02*
X186415D01*
X187959D02*
X188641D01*
X162513Y10152D02*
X163489D01*
X185111D02*
X186038D01*
X163028Y10246D02*
X163068D01*
X185532D02*
X185570D01*
D02*
D11*
X54250Y78531D02*
X54406Y78375D01*
X54719Y78219*
X55031Y78375*
X55187Y78531*
Y80094*
X55500*
X55187D02*
X54563D01*
X58000Y78219D02*
X56750D01*
X57844Y79313*
X58000Y79625*
X57844Y79937*
X57531Y80094*
X57063*
X56750Y79937*
X55250Y13031D02*
X55406Y12875D01*
X55719Y12719*
X56031Y12875*
X56187Y13031*
Y14594*
X56500*
X56187D02*
X55563D01*
X58063Y12719D02*
X58687D01*
X58375D02*
Y14594D01*
X58063Y14281*
X81750Y14219D02*
Y16094D01*
X83313*
X83000Y15156D02*
X81750D01*
X84563Y14219D02*
X85187D01*
X84875D02*
Y16094D01*
X84563Y15781*
X101359Y61824D02*
Y59324D01*
X100109Y61199D02*
X102609Y59949D01*
Y61199D02*
X100109Y59949D01*
X109250Y66719D02*
Y68594D01*
X110187*
X110500Y68437*
X110656Y68281*
X110813Y67969*
Y67344*
X110656Y67031*
X110500Y66875*
X110187Y66719*
X109250*
X112531D02*
Y68594D01*
X111750Y67344*
X113000*
X110750Y28719D02*
Y30594D01*
X111687*
X112000Y30437*
X112156Y30281*
X112313Y29969*
Y29344*
X112156Y29031*
X112000Y28875*
X111687Y28719*
X110750*
X113250Y28875D02*
X113563Y28719D01*
X114031*
X114344Y28875*
X114500Y29187*
Y29344*
X114344Y29656*
X114031Y29813*
X113250*
Y30594*
X114500*
X119250Y34719D02*
Y36594D01*
X120187*
X120500Y36437*
X120656Y36281*
X120813Y35969*
Y35344*
X120656Y35031*
X120500Y34875*
X120187Y34719*
X119250*
X121750Y35187D02*
X121906Y35500D01*
X122219Y35656*
X122531*
X122844Y35500*
X123000Y35187*
X122844Y34875*
X122531Y34719*
X122219*
X121906Y34875*
X121750Y35187*
Y35656*
X121906Y36125*
X122219Y36437*
X122531Y36594*
X125250Y17687D02*
X125406Y17375D01*
X125719Y17219*
X126344*
X126656Y17375*
X126813Y17687*
X126656Y18000*
X126344Y18156*
X125719*
X125406Y18313*
X125250Y18625*
X125406Y18937*
X125719Y19094*
X126344*
X126656Y18937*
X126813Y18625*
X128063Y17219D02*
X128687D01*
X128375D02*
Y19094D01*
X128063Y18781*
X145313Y86031D02*
X145156Y85875D01*
X144844Y85719*
X144375*
X144063Y85875*
X143906Y86031*
X143750Y86344*
Y86969*
X143906Y87281*
X144063Y87437*
X144375Y87594*
X144844*
X145156Y87437*
X145313Y87281*
X147031Y85719D02*
Y87594D01*
X146250Y86344*
X147500*
D02*
D12*
X84876Y56097D02*
Y58124D01*
X86903*
Y42376D02*
X84876D01*
Y44403*
X100624D02*
Y42376D01*
X98597*
X100624Y56097D02*
Y58124D01*
X98597*
D02*
D13*
X103750Y1250D02*
X53750D01*
Y11250*
X103750*
Y1250*
X123750Y81750D02*
X53750D01*
Y91750*
X123750*
Y81750*
D02*
D151*
X45250Y22750D02*
Y70250D01*
X250*
Y22750*
X45250*
X53663Y31500D02*
X49913D01*
Y33375*
X50225Y34000*
X50537Y34313*
X51163Y34625*
X52413*
X53037Y34313*
X53350Y34000*
X53663Y33375*
Y31500*
Y39000D02*
Y36500D01*
X51475Y38687*
X50850Y39000*
X50225Y38687*
X49913Y38063*
Y37125*
X50225Y36500*
X53037Y39725D02*
X53350Y39413D01*
X53663Y38787*
Y37850*
X53350Y37225*
X53037Y36913*
X52413Y36600*
X51163*
X50537Y36913*
X50225Y37225*
X49913Y37850*
Y38787*
X50225Y39413*
X50537Y39725*
X53350Y41913D02*
X53663Y42537D01*
Y43163*
X53350Y43787*
X52725Y44100*
X52100Y43787*
X51787Y43163*
Y42537*
Y43163D02*
X51475Y43787D01*
X50850Y44100*
X50225Y43787*
X49913Y43163*
Y42537*
X50225Y41913*
X53037Y56225D02*
X53350Y55913D01*
X53663Y55287*
Y54350*
X53350Y53725*
X53037Y53413*
X52413Y53100*
X51163*
X50537Y53413*
X50225Y53725*
X49913Y54350*
Y55287*
X50225Y55913*
X50537Y56225*
X53663Y60600D02*
Y58100D01*
X51475Y60287*
X50850Y60600*
X50225Y60287*
X49913Y59663*
Y58725*
X50225Y58100*
X53663Y58600D02*
X49913D01*
Y60475*
X50225Y61100*
X50537Y61413*
X51163Y61725*
X52413*
X53037Y61413*
X53350Y61100*
X53663Y60475*
Y58600*
Y64225D02*
Y65475D01*
Y64850D02*
X49913D01*
X50537Y64225*
X58900Y28600D02*
X53600D01*
Y40900*
X58900*
Y28600*
Y58600D02*
X53600D01*
Y70900*
X58900*
Y58600*
X59100Y33500D02*
Y38800D01*
X71400*
Y33500*
X59100*
Y38600D02*
Y43900D01*
X71400*
Y38600*
X59100*
Y55100D02*
Y60400D01*
X71400*
Y55100*
X59100*
Y60600D02*
Y65900D01*
X71400*
Y60600*
X59100*
X57775Y22537D02*
X58087Y22850D01*
X58713Y23163*
X59650*
X60275Y22850*
X60587Y22537*
X60900Y21913*
Y20663*
X60587Y20037*
X60275Y19725*
X59650Y19413*
X58713*
X58087Y19725*
X57775Y20037*
X55275Y23163D02*
X54025D01*
X54650D02*
Y19413D01*
X55275Y20037*
X60900Y49413D02*
Y53163D01*
X57775*
X55275D02*
X54025D01*
X54650D02*
Y49413D01*
X55275Y50037*
X63900Y19600D02*
X58600D01*
Y31900*
X63900*
Y19600*
X64350Y17950D02*
X88150D01*
Y31550*
X64350*
Y17950*
X65900Y10413D02*
Y14163D01*
X62775*
X58400D02*
X60900D01*
X58713Y11975*
X58400Y11350*
X58713Y10725*
X59337Y10413*
X60275*
X60900Y10725*
X70163Y30100D02*
X66413D01*
Y31975*
X66725Y32600*
X67037Y32913*
X67663Y33225*
X68913*
X69537Y32913*
X69850Y32600*
X70163Y31975*
Y30100*
X69850Y35413D02*
X70163Y36037D01*
Y36663*
X69850Y37287*
X69225Y37600*
X68600Y37287*
X68287Y36663*
Y36037*
Y36663D02*
X67975Y37287D01*
X67350Y37600*
X66725Y37287*
X66413Y36663*
Y36037*
X66725Y35413*
X71400Y48900D02*
Y43600D01*
X59100*
Y48900*
X71400*
Y54900D02*
Y49600D01*
X59100*
Y54900*
X71400*
X75600Y32100D02*
Y37400D01*
X87900*
Y32100*
X75600*
X76837Y50900D02*
X80587D01*
Y48713*
X80275Y48087*
X79650Y47775*
X79025Y48087*
X78713Y48713*
Y50900*
Y48713D02*
X76837Y47775D01*
Y43400D02*
Y45900D01*
X79025Y43713*
X79650Y43400*
X80275Y43713*
X80587Y44337*
Y45275*
X80275Y45900*
X76837Y56900D02*
X80587D01*
Y54713*
X80275Y54087*
X79650Y53775*
X79025Y54087*
X78713Y54713*
Y56900*
Y54713D02*
X76837Y53775D01*
Y51275D02*
Y50025D01*
Y50650D02*
X80587D01*
X79963Y51275*
X94400Y69900D02*
Y64600D01*
X82100*
Y69900*
X94400*
X95600Y64600D02*
Y69900D01*
X107900*
Y64600*
X95600*
X97100Y27100D02*
Y32400D01*
X109400*
Y27100*
X97100*
X99837Y71900D02*
X103587D01*
Y69713*
X103275Y69087*
X102650Y68775*
X102025Y69087*
X101713Y69713*
Y71900*
Y69713D02*
X99837Y68775D01*
X100150Y66587D02*
X99837Y65963D01*
Y65337*
X100150Y64713*
X100775Y64400*
X101400Y64713*
X101713Y65337*
Y65963*
Y65337D02*
X102025Y64713D01*
X102650Y64400*
X103275Y64713*
X103587Y65337*
Y65963*
X103275Y66587*
X107437Y63250D02*
X104625D01*
X104000Y62937*
X103687Y62313*
Y61063*
X104000Y60437*
X104625Y60125*
X107437*
X103687Y57625D02*
Y56375D01*
Y57000D02*
X107437D01*
X106813Y57625*
X104250Y64750D02*
X99250Y67250D01*
X104250Y69750*
X105750Y27250D02*
X100750Y29750D01*
X105750Y32250*
X106900Y38400D02*
Y33100D01*
X94600*
Y38400*
X106900*
X112337Y40400D02*
X116087D01*
Y38213*
X115775Y37587*
X115150Y37275*
X114525Y37587*
X114213Y38213*
Y40400*
Y38213D02*
X112337Y37275D01*
Y33837D02*
X116087D01*
X113587Y35400*
Y32900*
X119163Y25600D02*
X115413D01*
Y27787*
X115725Y28413*
X116350Y28725*
X116975Y28413*
X117287Y27787*
Y25600*
Y27787D02*
X119163Y28725D01*
X118850Y30600D02*
X119163Y31225D01*
Y32163*
X118850Y32787*
X118225Y33100*
X117913*
X117287Y32787*
X116975Y32163*
Y30600*
X115413*
Y33100*
X122163Y55600D02*
X118413D01*
Y57787*
X118725Y58413*
X119350Y58725*
X119975Y58413*
X120287Y57787*
Y55600*
Y57787D02*
X122163Y58725D01*
X121225Y60600D02*
X120600Y60913D01*
X120287Y61537*
Y62163*
X120600Y62787*
X121225Y63100*
X121850Y62787*
X122163Y62163*
Y61537*
X121850Y60913*
X121225Y60600*
X120287*
X119350Y60913*
X118725Y61537*
X118413Y62163*
X124600Y27600D02*
Y32900D01*
X136900*
Y27600*
X124600*
Y33100D02*
Y38400D01*
X136900*
Y33100*
X124600*
X127600Y57600D02*
Y62900D01*
X139900*
Y57600*
X127600*
X133250Y33250D02*
X128250Y35750D01*
X133250Y38250*
X140225Y19463D02*
X139913Y19150D01*
X139287Y18837*
X138350*
X137725Y19150*
X137413Y19463*
X137100Y20087*
Y21337*
X137413Y21963*
X137725Y22275*
X138350Y22587*
X139287*
X139913Y22275*
X140225Y21963*
X142100Y19150D02*
X142725Y18837D01*
X143663*
X144287Y19150*
X144600Y19775*
Y20087*
X144287Y20713*
X143663Y21025*
X142100*
Y22587*
X144600*
X139100Y13400D02*
X144400D01*
Y1100*
X139100*
Y13400*
X139900Y56400D02*
Y51100D01*
X127600*
Y56400*
X139900*
X145337Y58400D02*
X149087D01*
Y56213*
X148775Y55587*
X148150Y55275*
X147525Y55587*
X147213Y56213*
Y58400*
Y56213D02*
X145337Y55275D01*
Y53400D02*
X149087Y50900D01*
Y53400*
X160900Y89400D02*
Y84100D01*
X148600*
Y89400*
X160900*
X161163Y78600D02*
X157413D01*
Y80787*
X157725Y81413*
X158350Y81725*
X158975Y81413*
X159287Y80787*
Y78600*
Y80787D02*
X161163Y81725D01*
X159287Y84537D02*
Y85163D01*
X158975Y85787*
X158350Y86100*
X157725Y85787*
X157413Y85163*
Y84537*
X157725Y83913*
X158350Y83600*
X158975Y83913*
X159287Y84537*
X159600Y83913*
X160225Y83600*
X160850Y83913*
X161163Y84537*
Y85163*
X160850Y85787*
X160225Y86100*
X159600Y85787*
X159287Y85163*
X166600Y80600D02*
Y85900D01*
X178900*
Y80600*
X166600*
X165663Y83600D02*
X161913D01*
Y85787*
X162225Y86413*
X162850Y86725*
X163475Y86413*
X163787Y85787*
Y83600*
Y85787D02*
X165663Y86725D01*
Y89537D02*
X165350Y90163D01*
X164725Y90787*
X163787Y91100*
X162850*
X162225Y90787*
X161913Y90163*
Y89537*
X162225Y88913*
X162850Y88600*
X163475Y88913*
X163787Y89537*
Y90163*
X163475Y90787*
X162850Y91100*
X171100Y85600D02*
Y90900D01*
X183400*
Y85600*
X171100*
X186750Y16250D02*
X183750Y19250D01*
X189750Y16250D02*
X183750Y22250D01*
X192750Y16250D02*
X183750Y25250D01*
X195750Y16250D02*
X183750Y28250D01*
X198750Y16250D02*
X183750Y31250D01*
X200750Y16250D02*
Y65250D01*
X183750*
Y16250*
X200750*
Y77250*
X140750*
Y16250*
X200750*
Y17250D02*
X183750Y34250D01*
X200750Y20250D02*
X183750Y37250D01*
X200750Y23250D02*
X183750Y40250D01*
X200750Y26250D02*
X183750Y43250D01*
X200750Y29250D02*
X183750Y46250D01*
X200750Y32250D02*
X183750Y49250D01*
X200750Y35250D02*
X183750Y52250D01*
X200750Y38250D02*
X183750Y55250D01*
X200750Y41250D02*
X183750Y58250D01*
X200750Y44250D02*
X183750Y61250D01*
X200750Y47250D02*
X183750Y64250D01*
X200750Y50250D02*
X185750Y65250D01*
X188750*
X200750Y53250*
Y56250*
X191750Y65250*
X194750*
X200750Y59250*
Y62250*
X197750Y65250*
X0Y0D02*
M02*
