%FSLAX35Y35*%
%MOIN*%
G04 EasyPC Gerber Version 18.0.8 Build 3632 *
%ADD24R,0.06000X0.06000*%
%ADD13C,0.01000*%
%ADD27C,0.01500*%
%ADD72C,0.02500*%
%ADD26C,0.03200*%
%ADD18C,0.03543*%
X0Y0D02*
D02*
D13*
X73750Y57850D02*
Y46250D01*
X75750Y44250*
Y39250*
X116250Y35750D02*
Y51750D01*
X117250*
D02*
D18*
X116847Y6266D03*
X128658D03*
D02*
D24*
X58750Y6250D03*
Y86750D03*
X68750Y6250D03*
Y86750D03*
X78750Y6250D03*
Y86750D03*
X88750Y6250D03*
Y86750D03*
X98750Y6250D03*
Y86750D03*
X108750D03*
X118750D03*
D02*
D26*
X50250Y61250D03*
X52750Y41250D03*
X73750Y57850D03*
X75750Y39250D03*
X83750Y41250D03*
X106250Y53250D03*
Y61750D03*
X108250Y43250D03*
X114250Y60750D03*
X116250Y35750D03*
X117250Y51750D03*
X140250Y83750D03*
X146750Y3750D03*
X155250Y62250D03*
X155750Y30250D03*
X160750D03*
Y62250D03*
X165250Y52250D03*
X165750Y30250D03*
Y62250D03*
X167750Y6750D03*
X170750Y30250D03*
Y62250D03*
X175750Y30250D03*
Y62250D03*
X177250Y45250D03*
X180750Y83750D03*
X187750Y83250D03*
X194250Y85750D03*
D02*
D27*
X58750Y6250D02*
X59250D01*
X79750Y26750*
X152250*
X155750Y30250*
X68750Y6250D02*
X85250Y22750D01*
X153250*
X160750Y30250*
X78750Y6250D02*
X78250D01*
X91250Y19250*
X154750*
X165750Y30250*
X78750Y86750D02*
Y85250D01*
X92250Y71750*
X158250*
X165750Y64250*
Y62250*
X83750Y41250D02*
X95750Y53250D01*
X106250*
X88750Y6250D02*
X90750D01*
Y8750*
X97250Y15250*
X155750*
X170750Y30250*
X88750Y86750D02*
Y85250D01*
X98750Y75250*
X159750*
X170750Y64250*
Y62250*
X98750Y6250D02*
Y6750D01*
X99750*
X104750Y11750*
X157750*
X175750Y29750*
Y30250*
X98750Y86750D02*
X99250D01*
X107750Y78250*
X161750*
X175750Y64250*
Y62250*
X106250Y53250D02*
Y47250D01*
X108250*
Y43250*
X106250Y53250D02*
Y61750D01*
X108750Y86750D02*
Y86250D01*
X113750Y81250*
X126750*
X134250Y88750*
X182750*
X187750Y83750*
Y83250*
X155250Y62250D02*
X152750Y64750D01*
X80250*
X58750Y86250*
Y86750*
X160750Y62250D02*
Y64250D01*
X156750Y68250*
X85750*
X68750Y85250*
Y86750*
X170750Y62250D02*
Y41250D01*
X179250Y32750*
Y26750*
X156250Y3750*
X146750*
X180750Y83750D02*
Y50250D01*
X177250Y46750*
Y45250*
D02*
D72*
X52750Y41250D02*
Y58750D01*
X50250Y61250*
X0Y0D02*
M02*
